<?xml version="1.0" encoding="UTF-8"?>
<svg width="515px" height="399px" viewBox="0 0 515 399" version="1.1" xmlns="http://www.w3.org/2000/svg" xmlns:xlink="http://www.w3.org/1999/xlink">
    <!-- Generator: Sketch 43.1 (39012) - http://www.bohemiancoding.com/sketch -->
    <title>undraw_report_mx0anew</title>
    <desc>Created with Sketch.</desc>
    <defs>
        <linearGradient x1="49.9963627%" y1="100.004109%" x2="49.9963627%" y2="7.92274891e-06%" id="linearGradient-1">
            <stop stop-color="#808080" stop-opacity="0.25" offset="0%"></stop>
            <stop stop-color="#808080" stop-opacity="0.12" offset="54%"></stop>
            <stop stop-color="#808080" stop-opacity="0.1" offset="100%"></stop>
        </linearGradient>
        <linearGradient x1="95039%" y1="83764%" x2="95039%" y2="17791%" id="linearGradient-2">
            <stop stop-color="#808080" stop-opacity="0.25" offset="0%"></stop>
            <stop stop-color="#808080" stop-opacity="0.12" offset="54%"></stop>
            <stop stop-color="#808080" stop-opacity="0.1" offset="100%"></stop>
        </linearGradient>
    </defs>
    <g id="Page-1" stroke="none" stroke-width="1" fill="none" fill-rule="evenodd">
        <g id="undraw_report_mx0anew" fill-rule="nonzero">
            <path d="M111.576987,0.776097852 C95.0322551,0.166646778 77.7497689,-0.261873508 62.7900185,6.8325179 C47.830268,13.9269093 36.2641867,31.1153341 41.280915,46.91821 C42.9182532,52.0699761 46.1072551,56.5599165 48.796488,61.2498329 C62.2426525,84.7041766 62.8661738,115.019606 50.4005083,139.011981 C40.8049445,157.481205 24.5410351,171.536671 12.8321627,188.744141 C1.1232902,205.951611 -5.53077634,229.801146 5.98770795,247.137172 C13.8745379,259.007184 28.5106285,264.782685 42.6897874,266.182518 C56.8689464,267.582351 71.1290203,265.377852 85.3700555,264.811253 C113.081999,263.746041 140.675773,268.966208 166.08512,280.080859 C201.064187,295.421885 231.197874,321.666372 268.028466,331.793735 C272.450231,333.007876 277.071904,333.988711 281.593623,333.165 C289.613725,331.70327 295.444362,325.070728 301.722412,319.833258 C321.765527,303.230477 349.514603,300.130847 375.531146,299.359511 C401.547689,298.588174 428.644686,299.183341 452.162384,288.008484 C472.695749,278.252506 488.502726,260.102291 498.331516,239.599976 C508.160305,219.097661 512.42976,196.314666 514.03854,173.626897 C514.990481,160.123747 514.957163,146.182554 510.126063,133.541205 C504.69524,119.328616 493.681285,108.010919 482.129482,98.1168616 C470.058872,87.7752387 456.90305,78.4049284 442.000416,72.824642 C424.199122,66.1587709 404.874723,65.2065036 385.92158,63.6257399 C347.056028,60.378671 308.493088,54.1838191 270.565388,45.0946181 C234.567745,36.4861217 195.043161,27.0824821 162.258318,9.54647971 C145.80402,0.742768496 130.125555,1.44268496 111.576987,0.776097852 Z" id="Shape" fill="#619FE8" opacity="0.739662591"></path>
            <g id="Group" opacity="0.753702446" transform="translate(330.799445, 217.593079)">
                <path d="M8.98632163,82.6901313 C8.98632163,82.6901313 10.6712569,59.0691408 23.9603512,46.1897255 C29.5705274,40.823635 33.2884333,33.7812505 34.5554529,26.1206921 C35.1275171,22.479035 35.3664914,18.7927876 35.2694085,15.1077208" id="Shape" fill="#4990E2"></path>
                <path d="M43.5941312,6.94202864 C42.6183919,9.55124105 35.0742606,15.3505489 35.0742606,15.3505489 C35.0742606,15.3505489 33.1703789,6.02309069 34.1556377,3.41387828 C35.1295756,0.806616583 38.0319869,-0.517183259 40.6383548,0.457088528 C43.2447227,1.43136031 44.5680689,4.33476685 43.5941312,6.94202864 L43.5941312,6.94202864 Z" id="Shape" fill="#B6983F"></path>
                <path d="M46.0025416,24.3066229 C43.7654806,25.963568 34.2841497,26.7301432 34.2841497,26.7301432 C34.2841497,26.7301432 37.7587338,17.8692959 39.9957948,16.2075895 C42.2316039,14.639254 45.3092771,15.137143 46.9369586,17.3304928 C48.56464,19.5238426 48.1503248,22.6149085 46.0025416,24.3018616 L46.0025416,24.3066229 Z" id="Shape" fill="#B6983F"></path>
                <path d="M36.4402957,48.8608353 C33.6701479,49.1655609 25.0979205,45.0517661 25.0979205,45.0517661 C25.0979205,45.0517661 32.5706562,39.1572315 35.3360444,38.8620286 C38.0052485,38.7154946 40.3237615,40.68083 40.6173028,43.3387962 C40.9108441,45.9967625 39.0771059,48.42098 36.4402957,48.8608353 L36.4402957,48.8608353 Z" id="Shape" fill="#B6983F"></path>
                <path d="M25.0217652,65.8111933 C22.3468115,66.5777685 13.1986599,63.9590334 13.1986599,63.9590334 C13.1986599,63.9590334 19.5671442,56.8884487 22.242098,56.1218735 C23.9908278,55.5654307 25.9036947,56.0036518 27.2360536,57.265945 C28.5684125,58.5282383 29.1097251,60.4151372 28.649268,62.1921054 C28.188811,63.9690736 26.7993453,65.3553161 25.0217652,65.8111933 L25.0217652,65.8111933 Z" id="Shape" fill="#B6983F"></path>
                <path d="M24.1840573,23.5305251 C25.3739834,26.0445107 33.3798059,31.1819928 33.3798059,31.1819928 C33.3798059,31.1819928 34.4840573,21.7307399 33.2893715,19.2119928 C32.0505772,16.7813391 29.1037866,15.7772689 26.6393638,16.9461126 C24.1749409,18.1149563 23.0869311,21.03268 24.1840573,23.5305251 L24.1840573,23.5305251 Z" id="Shape" fill="#B6983F"></path>
                <path d="M11.0805915,43.5233771 C12.9844732,45.5659905 22.1469039,48.0752148 22.1469039,48.0752148 C22.1469039,48.0752148 20.3715342,38.7239499 18.4819316,36.6765752 C16.5894268,34.6437149 13.4097738,34.5249526 11.3709963,36.4109768 C9.33221868,38.2970009 9.20236427,41.4773089 11.0805915,43.5233771 Z" id="Shape" fill="#B6983F"></path>
                <path d="M1.01381701,64.7018019 C2.52740296,67.0348568 11.1519871,71.0581862 11.1519871,71.0581862 C11.1519871,71.0581862 10.9806377,61.5355131 9.46229205,59.2072196 C7.91110657,56.96199 4.85565753,56.3589648 2.5682551,57.8466086 C0.280852672,59.3342523 -0.408076966,62.3724858 1.01381701,64.7018019 Z" id="Shape" fill="#B6983F"></path>
                <path d="M43.5941312,6.94202864 C42.6183919,9.55124105 35.0742606,15.3505489 35.0742606,15.3505489 C35.0742606,15.3505489 33.1703789,6.02309069 34.1556377,3.41387828 C35.1295756,0.806616583 38.0319869,-0.517183259 40.6383548,0.457088528 C43.2447227,1.43136031 44.5680689,4.33476685 43.5941312,6.94202864 L43.5941312,6.94202864 Z" id="Shape" fill="#4990E2"></path>
                <path d="M46.0025416,24.3066229 C43.7654806,25.963568 34.2841497,26.7301432 34.2841497,26.7301432 C34.2841497,26.7301432 37.7587338,17.8692959 39.9957948,16.2075895 C42.2316039,14.639254 45.3092771,15.137143 46.9369586,17.3304928 C48.56464,19.5238426 48.1503248,22.6149085 46.0025416,24.3018616 L46.0025416,24.3066229 Z" id="Shape" fill="#4990E2"></path>
                <path d="M36.4402957,48.8608353 C33.6701479,49.1655609 25.0979205,45.0517661 25.0979205,45.0517661 C25.0979205,45.0517661 32.5706562,39.1572315 35.3360444,38.8620286 C38.0052485,38.7154946 40.3237615,40.68083 40.6173028,43.3387962 C40.9108441,45.9967625 39.0771059,48.42098 36.4402957,48.8608353 L36.4402957,48.8608353 Z" id="Shape" fill="#4990E2"></path>
                <path d="M25.0217652,65.8111933 C22.3468115,66.5777685 13.1986599,63.9590334 13.1986599,63.9590334 C13.1986599,63.9590334 19.5671442,56.8884487 22.242098,56.1218735 C23.9908278,55.5654307 25.9036947,56.0036518 27.2360536,57.265945 C28.5684125,58.5282383 29.1097251,60.4151372 28.649268,62.1921054 C28.188811,63.9690736 26.7993453,65.3553161 25.0217652,65.8111933 L25.0217652,65.8111933 Z" id="Shape" fill="#4990E2"></path>
                <path d="M24.1840573,23.5305251 C25.3739834,26.0445107 33.3798059,31.1819928 33.3798059,31.1819928 C33.3798059,31.1819928 34.4840573,21.7307399 33.2893715,19.2119928 C32.0505772,16.7813391 29.1037866,15.7772689 26.6393638,16.9461126 C24.1749409,18.1149563 23.0869311,21.03268 24.1840573,23.5305251 L24.1840573,23.5305251 Z" id="Shape" fill="#4990E2"></path>
                <path d="M11.0805915,43.5233771 C12.9844732,45.5659905 22.1469039,48.0752148 22.1469039,48.0752148 C22.1469039,48.0752148 20.3715342,38.7239499 18.4819316,36.6765752 C16.5894268,34.6437149 13.4097738,34.5249526 11.3709963,36.4109768 C9.33221868,38.2970009 9.20236427,41.4773089 11.0805915,43.5233771 Z" id="Shape" fill="#B6983F"></path>
                <path d="M1.01381701,64.7018019 C2.52740296,67.0348568 11.1519871,71.0581862 11.1519871,71.0581862 C11.1519871,71.0581862 10.9806377,61.5355131 9.46229205,59.2072196 C7.91110657,56.96199 4.85565753,56.3589648 2.5682551,57.8466086 C0.280852672,59.3342523 -0.408076966,62.3724858 1.01381701,64.7018019 Z" id="Shape" fill="#B6983F"></path>
            </g>
            <g id="Group" opacity="0.657291667" transform="translate(335.559150, 128.079952)">
                <path d="M8.89112754,82.7948807 C8.89112754,82.7948807 10.5760628,59.1738902 23.8651571,46.2944749 C29.4733903,40.9269167 33.190932,33.8852223 34.4602588,26.2254415 C35.0368813,22.5842909 35.2758828,18.8976236 35.1742144,15.2124702" id="Shape" fill="#4990E2"></path>
                <path d="M43.4989372,7.04677804 C42.5469963,9.65122912 34.9838262,15.450537 34.9838262,15.450537 C34.9838262,15.450537 33.0799445,6.12307876 34.0604436,3.51862768 C35.0343814,0.911365854 37.9367928,-0.41243411 40.5431608,0.561837709 C43.1495288,1.53610953 44.472875,4.43951621 43.4989372,7.04677804 L43.4989372,7.04677804 Z" id="Shape" fill="#B6983F"></path>
                <path d="M45.9216266,24.406611 C43.6893253,26.0683174 34.2032348,26.8301313 34.2032348,26.8301313 C34.2032348,26.8301313 37.6778189,17.9740453 39.9148799,16.3123389 C41.3568288,15.1797757 43.2997972,14.9196991 44.98868,15.6331839 C46.6775629,16.3466686 47.8460168,17.9211954 48.03994,19.7448484 C48.2338631,21.5685015 47.4226732,23.3536836 45.9216266,24.406611 L45.9216266,24.406611 Z" id="Shape" fill="#B6983F"></path>
                <path d="M36.3451017,48.9655847 C33.5797135,49.2703103 25.0074861,45.1565155 25.0074861,45.1565155 C25.0074861,45.1565155 32.4802218,39.2667422 35.24561,38.966778 C37.053794,38.7343118 38.8465415,39.4966642 39.9339055,40.9604406 C41.0212696,42.4242169 41.2337656,44.361262 40.4896134,46.0260955 C39.7454613,47.690929 38.1606502,48.8240575 36.3451017,48.9893914 L36.3451017,48.9655847 Z" id="Shape" fill="#B6983F"></path>
                <path d="M24.9265712,65.9159427 C22.2516174,66.6825179 13.1034658,64.0637828 13.1034658,64.0637828 C13.1034658,64.0637828 19.4767098,56.9931981 22.1469039,56.2218616 C24.8084241,55.4963271 27.5585535,57.0457724 28.3179401,59.6986738 C29.0773268,62.3515752 27.5638382,65.1223082 24.9218115,65.9159427 L24.9265712,65.9159427 Z" id="Shape" fill="#B6983F"></path>
                <path d="M24.0888632,23.6305131 C25.2787893,26.1492601 33.2893715,31.2867422 33.2893715,31.2867422 C33.2893715,31.2867422 34.3888632,21.8307279 33.1989372,19.3167422 C32.4506582,17.6525669 30.8619429,16.5226731 29.044852,16.3623583 C27.227761,16.2020435 25.4658729,17.0363267 24.4379641,18.543796 C23.4100552,20.0512654 23.2765428,21.9966624 24.0888632,23.6305131 Z" id="Shape" fill="#B6983F"></path>
                <path d="M10.9853974,43.6233652 C12.8892791,45.6707399 22.0564695,48.1752029 22.0564695,48.1752029 C22.0564695,48.1752029 20.2763401,38.8239379 18.3867375,36.7813246 C16.4807451,34.8210862 13.3601693,34.7379114 11.3525318,36.5938371 C9.34489423,38.4497628 9.18202288,41.5682634 10.9853974,43.6233652 L10.9853974,43.6233652 Z" id="Shape" fill="#B6983F"></path>
                <path d="M0.918622921,64.8065513 C2.43696858,67.1396062 11.056793,71.1629356 11.056793,71.1629356 C11.056793,71.1629356 10.8854436,61.6402625 9.36709797,59.311969 C8.4108833,57.7455187 6.67930437,56.8225616 4.84625272,56.9022919 C3.01320107,56.9820222 1.36824053,58.051845 0.551552727,59.6954093 C-0.265135078,61.3389736 -0.124539463,63.2966487 0.918622921,64.8065513 L0.918622921,64.8065513 Z" id="Shape" fill="#B6983F"></path>
                <path d="M43.4989372,7.04677804 C42.5469963,9.65122912 34.9838262,15.450537 34.9838262,15.450537 C34.9838262,15.450537 33.0799445,6.12307876 34.0604436,3.51862768 C35.0343814,0.911365854 37.9367928,-0.41243411 40.5431608,0.561837709 C43.1495288,1.53610953 44.472875,4.43951621 43.4989372,7.04677804 L43.4989372,7.04677804 Z" id="Shape" fill="#4990E2"></path>
                <path d="M45.9216266,24.406611 C43.6893253,26.0683174 34.2032348,26.8301313 34.2032348,26.8301313 C34.2032348,26.8301313 37.6778189,17.9740453 39.9148799,16.3123389 C41.3568288,15.1797757 43.2997972,14.9196991 44.98868,15.6331839 C46.6775629,16.3466686 47.8460168,17.9211954 48.03994,19.7448484 C48.2338631,21.5685015 47.4226732,23.3536836 45.9216266,24.406611 L45.9216266,24.406611 Z" id="Shape" fill="#4990E2"></path>
                <path d="M36.3451017,48.9655847 C33.5797135,49.2703103 25.0074861,45.1565155 25.0074861,45.1565155 C25.0074861,45.1565155 32.4802218,39.2667422 35.24561,38.966778 C37.053794,38.7343118 38.8465415,39.4966642 39.9339055,40.9604406 C41.0212696,42.4242169 41.2337656,44.361262 40.4896134,46.0260955 C39.7454613,47.690929 38.1606502,48.8240575 36.3451017,48.9893914 L36.3451017,48.9655847 Z" id="Shape" fill="#4990E2"></path>
                <path d="M24.9265712,65.9159427 C22.2516174,66.6825179 13.1034658,64.0637828 13.1034658,64.0637828 C13.1034658,64.0637828 19.4767098,56.9931981 22.1469039,56.2218616 C24.8084241,55.4963271 27.5585535,57.0457724 28.3179401,59.6986738 C29.0773268,62.3515752 27.5638382,65.1223082 24.9218115,65.9159427 L24.9265712,65.9159427 Z" id="Shape" fill="#4990E2"></path>
                <path d="M24.0888632,23.6305131 C25.2787893,26.1492601 33.2893715,31.2867422 33.2893715,31.2867422 C33.2893715,31.2867422 34.3888632,21.8307279 33.1989372,19.3167422 C32.4506582,17.6525669 30.8619429,16.5226731 29.044852,16.3623583 C27.227761,16.2020435 25.4658729,17.0363267 24.4379641,18.543796 C23.4100552,20.0512654 23.2765428,21.9966624 24.0888632,23.6305131 Z" id="Shape" fill="#4990E2"></path>
                <path d="M10.9853974,43.6233652 C12.8892791,45.6707399 22.0564695,48.1752029 22.0564695,48.1752029 C22.0564695,48.1752029 20.2763401,38.8239379 18.3867375,36.7813246 C16.4807451,34.8210862 13.3601693,34.7379114 11.3525318,36.5938371 C9.34489423,38.4497628 9.18202288,41.5682634 10.9853974,43.6233652 L10.9853974,43.6233652 Z" id="Shape" fill="#4990E2"></path>
                <path d="M0.918622921,64.8065513 C2.43696858,67.1396062 11.056793,71.1629356 11.056793,71.1629356 C11.056793,71.1629356 10.8854436,61.6402625 9.36709797,59.311969 C8.4108833,57.7455187 6.67930437,56.8225616 4.84625272,56.9022919 C3.01320107,56.9820222 1.36824053,58.051845 0.551552727,59.6954093 C-0.265135078,61.3389736 -0.124539463,63.2966487 0.918622921,64.8065513 L0.918622921,64.8065513 Z" id="Shape" fill="#B6983F"></path>
            </g>
            <g id="Group" opacity="0.758910779" transform="translate(30.938078, 175.217184)">
                <path d="M61.0146488,66.6063365 C61.0146488,66.6063365 40.6859519,54.4839737 35.1504159,36.8289379 C32.8832629,29.403158 28.2663679,22.9148979 21.9945933,18.3406683 C18.9998505,16.1888253 15.8132396,14.3176432 12.4751848,12.7508592" id="Shape" fill="#4990E2"></path>
                <path d="M8.92920518,1.62837709 C10.8330869,3.67099045 12.6084566,13.0222554 12.6084566,13.0222554 C12.6084566,13.0222554 3.42698706,10.5225537 1.53738447,8.47994033 C-0.262209425,6.42660096 -0.100734072,3.31332453 1.90162482,1.45731515 C3.90398371,-0.398694235 7.01945687,-0.322858903 8.92920518,1.62837709 L8.92920518,1.62837709 Z" id="Shape" fill="#B6983F"></path>
                <path d="M25.5167745,7.30865155 C25.9927449,10.0511814 22.4134473,18.8691766 22.4134473,18.8691766 C22.4134473,18.8691766 16.0640018,11.7795465 15.5880314,9.03701671 C15.2295586,7.24122614 15.8725563,5.39218262 17.2677729,4.20664899 C18.6629894,3.02111535 20.5910691,2.68548116 22.3046114,3.32985158 C24.0181537,3.97422199 25.2477556,5.49728913 25.5167745,7.30865155 L25.5167745,7.30865155 Z" id="Shape" fill="#B6983F"></path>
                <path d="M43.146719,26.868222 C42.1947782,29.4774344 34.6316081,35.2815036 34.6316081,35.2815036 C34.6316081,35.2815036 32.7277264,25.9540453 33.7034658,23.3495943 C34.2952445,21.6124505 35.7838148,20.3341296 37.5899528,20.0120446 C39.3960907,19.6899595 41.2345397,20.3749795 42.3899331,21.8005536 C43.5453264,23.2261276 43.8351844,25.1671043 43.146719,26.868222 L43.146719,26.868222 Z" id="Shape" fill="#B6983F"></path>
                <path d="M53.1468577,44.6899045 C52.6328096,47.427673 46.1786506,54.4458831 46.1786506,54.4458831 C46.1786506,54.4458831 42.7278651,45.5755131 43.2466728,42.842506 C43.5808168,41.0734017 44.8330609,39.6170068 46.5316969,39.0219311 C48.2303329,38.4268555 50.1172975,38.7835052 51.4817895,39.9575338 C52.8462814,41.1315624 53.4810018,42.944607 53.1468577,44.7137112 L53.1468577,44.6899045 Z" id="Shape" fill="#B6983F"></path>
                <path d="M15.0168669,26.430179 C17.7965342,26.4968377 25.9879852,21.6688425 25.9879852,21.6688425 C25.9879852,21.6688425 18.0392791,16.4313723 15.2548521,16.3647136 C12.5097037,16.3538766 10.2606574,18.5425277 10.1958391,21.2878733 C10.1310209,24.0332189 12.274268,26.3256441 15.0168669,26.444463 L15.0168669,26.430179 Z" id="Shape" fill="#B6983F"></path>
                <path d="M26.9780037,47.1277088 C29.6529575,46.3563723 36.0214418,39.2810263 36.0214418,39.2810263 C36.0214418,39.2810263 26.8732902,36.6670525 24.1983364,37.438389 C21.585697,38.256619 20.1036113,41.011379 20.8599797,43.6434089 C21.6163481,46.2754389 24.3345987,47.8223171 26.9827634,47.1277088 L26.9780037,47.1277088 Z" id="Shape" fill="#B6983F"></path>
                <path d="M41.3618299,65.6445465 C44.1319778,65.339821 51.5999538,59.4548091 51.5999538,59.4548091 C51.5999538,59.4548091 43.0324861,55.3314916 40.2575786,55.6457399 C38.3948955,55.7479974 36.741335,56.8719535 35.9603283,58.5666614 C35.1793215,60.2613693 35.3988464,62.2491296 36.5308266,63.7324255 C37.6628067,65.2157215 39.5217527,65.9514961 41.3618299,65.6445465 L41.3618299,65.6445465 Z" id="Shape" fill="#B6983F"></path>
                <path d="M8.92920518,1.62837709 C10.8330869,3.67099045 12.6084566,13.0222554 12.6084566,13.0222554 C12.6084566,13.0222554 3.42698706,10.5225537 1.53738447,8.47994033 C-0.262209425,6.42660096 -0.100734072,3.31332453 1.90162482,1.45731515 C3.90398371,-0.398694235 7.01945687,-0.322858903 8.92920518,1.62837709 L8.92920518,1.62837709 Z" id="Shape" fill="#4990E2"></path>
                <path d="M25.5167745,7.30865155 C25.9927449,10.0511814 22.4134473,18.8691766 22.4134473,18.8691766 C22.4134473,18.8691766 16.0640018,11.7795465 15.5880314,9.03701671 C15.2295586,7.24122614 15.8725563,5.39218262 17.2677729,4.20664899 C18.6629894,3.02111535 20.5910691,2.68548116 22.3046114,3.32985158 C24.0181537,3.97422199 25.2477556,5.49728913 25.5167745,7.30865155 L25.5167745,7.30865155 Z" id="Shape" fill="#4990E2"></path>
                <path d="M43.146719,26.868222 C42.1947782,29.4774344 34.6316081,35.2815036 34.6316081,35.2815036 C34.6316081,35.2815036 32.7277264,25.9540453 33.7034658,23.3495943 C34.2952445,21.6124505 35.7838148,20.3341296 37.5899528,20.0120446 C39.3960907,19.6899595 41.2345397,20.3749795 42.3899331,21.8005536 C43.5453264,23.2261276 43.8351844,25.1671043 43.146719,26.868222 L43.146719,26.868222 Z" id="Shape" fill="#619FE8"></path>
                <path d="M53.1468577,44.6899045 C52.6328096,47.427673 46.1786506,54.4458831 46.1786506,54.4458831 C46.1786506,54.4458831 42.7278651,45.5755131 43.2466728,42.842506 C43.5808168,41.0734017 44.8330609,39.6170068 46.5316969,39.0219311 C48.2303329,38.4268555 50.1172975,38.7835052 51.4817895,39.9575338 C52.8462814,41.1315624 53.4810018,42.944607 53.1468577,44.7137112 L53.1468577,44.6899045 Z" id="Shape" fill="#4990E2"></path>
                <path d="M15.0168669,26.430179 C17.7965342,26.4968377 25.9879852,21.6688425 25.9879852,21.6688425 C25.9879852,21.6688425 18.0392791,16.4313723 15.2548521,16.3647136 C12.5097037,16.3538766 10.2606574,18.5425277 10.1958391,21.2878733 C10.1310209,24.0332189 12.274268,26.3256441 15.0168669,26.444463 L15.0168669,26.430179 Z" id="Shape" fill="#4990E2"></path>
                <path d="M26.9780037,47.1277088 C29.6529575,46.3563723 36.0214418,39.2810263 36.0214418,39.2810263 C36.0214418,39.2810263 26.8732902,36.6670525 24.1983364,37.438389 C21.585697,38.256619 20.1036113,41.011379 20.8599797,43.6434089 C21.6163481,46.2754389 24.3345987,47.8223171 26.9827634,47.1277088 L26.9780037,47.1277088 Z" id="Shape" fill="#4990E2"></path>
                <path d="M41.3618299,65.6445465 C44.1319778,65.339821 51.5999538,59.4548091 51.5999538,59.4548091 C51.5999538,59.4548091 43.0324861,55.3314916 40.2575786,55.6457399 C38.3948955,55.7479974 36.741335,56.8719535 35.9603283,58.5666614 C35.1793215,60.2613693 35.3988464,62.2491296 36.5308266,63.7324255 C37.6628067,65.2157215 39.5217527,65.9514961 41.3618299,65.6445465 L41.3618299,65.6445465 Z" id="Shape" fill="#4990E2"></path>
            </g>
            <path d="M341.142283,384.406504 C354.807394,390.353413 371.480638,386.734797 386.987754,387.153795 C389.105823,387.210931 391.357163,387.3871 393.056377,388.415549 C394.755591,389.443998 395.598059,391.105704 396.764187,392.534105 C401.109797,397.838234 410.015203,399.542792 417.79732,398.6429 C425.579436,397.743007 432.714233,394.762411 440.058457,392.496014 C452.752588,388.572673 467.260166,386.782411 479.782948,391.067613 C480.930037,391.458043 482.1628,391.91037 483.371765,391.753246 C486.118115,391.405668 486.936784,388.558389 488.854945,386.934773 C492.320009,383.997029 499.849861,384.796933 501.372967,380.925967 C502.263031,378.65957 500.211599,376.336038 497.974538,374.788604 C489.40707,368.865501 477.17463,367.889427 465.975046,368.803604 C454.775462,369.71778 443.766266,372.236527 432.509566,372.24605 C418.482717,372.24605 404.931839,368.379845 391.043022,366.79432 C381.42366,365.699212 370.923752,365.842053 361.904113,369.065477 C352.12768,372.550776 349.976294,380.40222 341.142283,384.406504 Z" id="Shape" fill="#4990E2" opacity="0.646025815"></path>
            <path d="M82.5380314,366.165823 C105.860582,372.884069 134.323614,368.794081 160.787569,369.270215 C164.409704,369.336874 168.246026,369.532088 171.154205,370.698616 C174.062384,371.865143 175.490296,373.745871 177.484612,375.355203 C184.900231,381.349726 200.097967,383.278067 213.377542,382.259141 C226.657116,381.240215 238.841959,377.87395 251.37902,375.312351 C273.045194,370.879547 297.814695,368.86074 319.185767,373.693496 C321.146765,374.136301 323.212477,374.645764 325.316266,374.469594 C329.999815,374.074403 331.394409,370.860501 334.673845,369.022625 C340.590157,365.68969 353.436599,366.608628 356.035397,362.237721 C357.558503,359.676122 354.05536,357.047864 350.238078,355.300453 C335.635305,348.610776 314.740203,347.506146 295.620471,348.539356 C276.500739,349.572566 257.709427,352.415084 238.50402,352.429368 C214.562708,352.429368 191.430545,348.063222 167.722458,346.268198 C151.301479,345.030251 133.381192,345.182613 117.983549,348.83932 C101.291266,352.786468 97.6120148,361.656838 82.5380314,366.165823 Z" id="Shape" fill="#4990E2" opacity="0.742606431"></path>
            <path d="M20.1097505,382.630525 C26.7733364,386.63957 34.8648336,384.201766 42.4137246,384.482685 C43.4465804,384.520776 44.5413124,384.639809 45.3695009,385.330203 C46.1976895,386.020597 46.607024,387.149033 47.1734288,388.110823 C49.2867375,391.686587 53.6180684,392.838831 57.4020333,392.229379 C61.1859982,391.619928 64.6605823,389.615406 68.2351201,388.082255 C74.4227357,385.439714 81.4718577,384.235095 87.5595194,387.129988 C88.0811975,387.463621 88.6923625,387.629755 89.3110906,387.606122 C90.6438078,387.368055 91.0436229,385.449236 91.976525,384.354129 C93.6614603,382.373413 97.3264325,382.925728 98.0641867,380.302232 C98.4973198,378.773842 97.4977819,377.207363 96.4125693,376.16463 C92.2525878,372.169869 86.2934381,371.512804 80.8435767,372.127017 C75.3937153,372.741229 70.0390481,374.407697 64.5606285,374.407697 C57.7399723,374.407697 51.1477819,371.803246 44.3890018,370.731945 C39.7054529,369.989177 34.5982902,370.084403 30.2098429,372.265095 C25.4548983,374.645764 24.4077634,379.94037 20.1097505,382.630525 Z" id="Shape" fill="#4990E2" opacity="0.1"></path>
            <path d="M331.027911,17.459821 L109.882532,17.459821 C104.510399,17.4509748 99.3548505,19.5776238 95.5503755,23.3717952 C91.7459004,27.1659665 89.6042408,32.316762 89.5966728,37.6907399 L89.5966728,344.192255 C89.6203083,355.377546 98.7010666,364.427316 109.882532,364.40889 L331.027911,364.40889 C336.400045,364.417736 341.555593,362.291087 345.360068,358.496916 C349.164543,354.702745 351.306203,349.551949 351.313771,344.177971 L351.313771,37.6907399 C351.306203,32.316762 349.164543,27.1659665 345.360068,23.3717952 C341.555593,19.5776238 336.400045,17.4509748 331.027911,17.459821 L331.027911,17.459821 Z" id="Shape" fill="url(#linearGradient-1)"></path>
            <rect id="Rectangle-path" fill="#535461" x="92.7142791" y="21.6164678" width="255.462847" height="339.692792" rx="20"></rect>
            <rect id="Rectangle-path" fill="#F6F7F9" x="105.693993" y="53.7459666" width="229.50342" height="275.429033"></rect>
            <ellipse id="Oval" fill="#F6F7F9" cx="219.408087" cy="37.1955609" rx="3.11760628" ry="3.11867542"></ellipse>
            <ellipse id="Oval" fill="#F6F7F9" cx="219.408087" cy="344.687434" rx="9.34805915" ry="9.35126492"></ellipse>
            <g id="Group" opacity="0.354155344" transform="translate(105.665434, 53.326969)" fill="#619FE8">
                <rect id="Rectangle-path" x="0.0285582255" y="0.418997613" width="229.50342" height="13.7269332"></rect>
            </g>
            <ellipse id="Oval" fill="#F6F7F9" cx="112.871627" cy="60.6118138" rx="2.92721811" ry="2.92822196"></ellipse>
            <ellipse id="Oval" fill="#F6F7F9" cx="120.330083" cy="60.6118138" rx="2.92721811" ry="2.92822196"></ellipse>
            <ellipse id="Oval" fill="#F6F7F9" cx="127.78378" cy="60.6118138" rx="2.92721811" ry="2.92822196"></ellipse>
            <rect id="Rectangle-path" fill="#DCE0ED" x="112.547967" y="134.712494" width="213.715481" height="1"></rect>
            <rect id="Rectangle-path" fill="#DCE0ED" x="112.547967" y="151.296229" width="213.715481" height="1"></rect>
            <rect id="Rectangle-path" fill="#DCE0ED" x="112.547967" y="167.884726" width="213.715481" height="1"></rect>
            <rect id="Rectangle-path" fill="#DCE0ED" x="112.547967" y="184.468461" width="213.715481" height="1"></rect>
            <rect id="Rectangle-path" fill="#DCE0ED" x="112.547967" y="201.052196" width="213.715481" height="1"></rect>
            <g id="Group" opacity="0.2" transform="translate(111.853050, 144.744630)" fill="#4990E2">
                <polygon id="Shape" points="0.433133087 57.0217661 0.433133087 24.406611 20.0573937 34.0816468 40.3670518 36.8384606 58.1873845 31.4629117 79.6869686 14.7839499 90.5010166 8.53707637 98.4068854 7.01344869 105.970055 7.41816229 118.407163 13.5650477 135.318392 24.3399523 148.588447 26.0445107 159.107394 22.4163723 181.411368 4.14712411 192.79658 0.0857040573 204.71012 1.92834129 214.410397 7.53243437 214.410397 57.0217661"></polygon>
            </g>
            <path d="M149.583226,181.573568 C130.311183,181.573568 112.505129,169.784499 112.281423,169.632136 L112.81451,168.841754 C113.090573,169.027446 140.49695,187.163377 163.786183,178.078747 C172.277495,174.745811 178.32232,169.613091 184.171996,164.627971 C190.278697,159.423831 196.042699,154.510131 203.90573,152.377053 C212.92061,149.934487 222.773198,152.143747 230.260213,158.300155 C236.662015,163.561432 249.408503,172.008043 262.873706,169.484535 C269.7372,168.194212 275.52024,163.180525 281.64598,157.871635 C293.38817,147.691897 305.534935,137.164582 326.54427,152.267542 L325.987384,153.038878 C305.587292,138.373962 293.735628,148.653687 282.269501,158.590597 C276.043808,163.985191 270.165573,169.065537 263.049815,170.417757 C249.199076,173.017446 236.186044,164.399427 229.65573,159.033401 C222.406701,153.076969 212.877773,150.939129 204.153235,153.29599 C196.49963,155.371933 190.826063,160.218974 184.785998,165.351695 C178.879205,170.389189 172.772505,175.593329 164.133641,178.964356 C159.48863,180.734285 154.553592,181.619246 149.583226,181.573568 L149.583226,181.573568 Z" id="Shape" fill="#4990E2"></path>
            <ellipse id="Oval" fill="#4990E2" cx="215.386137" cy="151.710465" rx="5.29755083" ry="5.29936754"></ellipse>
            <g id="Group" opacity="0.2" transform="translate(216.566543, 81.418854)" fill="#4990E2">
                <path d="M67.9209797,0.166646778 L1.09473198,0.166646778 C0.495385625,0.166646778 0.0095194085,0.652679615 0.0095194085,1.2522315 L0.0095194085,46.4611217 C0.0100935047,46.9058988 0.281827759,47.3053299 0.695228019,47.4690673 C1.10862828,47.6328048 1.58005171,47.5277198 1.88484288,47.2038902 L13.4652033,34.848222 C13.6696963,34.6293481 13.9558309,34.505199 14.2553142,34.5054057 L67.9209797,34.5054057 C68.520326,34.5054057 69.0061922,34.0193729 69.0061922,33.419821 L69.0061922,1.24270883 C69.0009673,0.646879099 68.5166281,0.166623853 67.9209797,0.166646778 Z" id="Shape"></path>
            </g>
            <rect id="Rectangle-path" fill="#F6F7F9" x="232.045102" y="89.9559308" width="38.0538355" height="4.76133652"></rect>
            <rect id="Rectangle-path" fill="#F6F7F9" x="232.045102" y="100.507053" width="10.4475508" height="4.76133652"></rect>
            <g id="Group" opacity="0.2" transform="translate(130.415896, 235.686158)" fill="#619FE8">
                <rect id="Rectangle-path" x="0.180868762" y="0.152362768" width="10.4475508" height="4.76133652"></rect>
            </g>
            <g id="Group" opacity="0.2" transform="translate(130.415896, 244.732697)" fill="#619FE8">
                <rect id="Rectangle-path" x="0.180868762" y="0.309486874" width="10.4475508" height="4.76133652"></rect>
            </g>
            <g id="Group" opacity="0.2" transform="translate(130.415896, 253.779236)" fill="#619FE8">
                <rect id="Rectangle-path" x="0.180868762" y="0.466610979" width="10.4475508" height="4.76133652"></rect>
            </g>
            <g id="Group" opacity="0.2" transform="translate(130.415896, 263.301909)" fill="#619FE8">
                <rect id="Rectangle-path" x="0.180868762" y="0.152362768" width="10.4475508" height="4.76133652"></rect>
            </g>
            <g id="Group" opacity="0.2" transform="translate(130.415896, 272.348449)" fill="#619FE8">
                <rect id="Rectangle-path" x="0.180868762" y="0.309486874" width="10.4475508" height="4.76133652"></rect>
            </g>
            <g id="Group" opacity="0.2" transform="translate(130.415896, 281.394988)" fill="#619FE8">
                <rect id="Rectangle-path" x="0.180868762" y="0.466610979" width="10.4475508" height="4.76133652"></rect>
            </g>
            <g id="Group" opacity="0.2" transform="translate(130.415896, 290.917661)" fill="#619FE8">
                <rect id="Rectangle-path" x="0.180868762" y="0.152362768" width="10.4475508" height="4.76133652"></rect>
            </g>
            <g id="Group" opacity="0.2" transform="translate(130.415896, 299.964200)" fill="#619FE8">
                <rect id="Rectangle-path" x="0.180868762" y="0.309486874" width="10.4475508" height="4.76133652"></rect>
            </g>
            <g id="Group" opacity="0.2" transform="translate(149.930684, 304.725537)" fill="#619FE8">
                <rect id="Rectangle-path" x="0.337939002" y="0.309486874" width="10.4475508" height="4.76133652"></rect>
            </g>
            <g id="Group" opacity="0.2" transform="translate(168.493530, 304.725537)" fill="#619FE8">
                <rect id="Rectangle-path" x="0.180868762" y="0.309486874" width="10.4475508" height="4.76133652"></rect>
            </g>
            <g id="Group" opacity="0.2" transform="translate(187.056377, 304.725537)" fill="#619FE8">
                <rect id="Rectangle-path" x="0.0237985213" y="0.309486874" width="10.4475508" height="4.76133652"></rect>
            </g>
            <g id="Group" opacity="0.2" transform="translate(205.143253, 304.725537)" fill="#619FE8">
                <rect id="Rectangle-path" x="0.337939002" y="0.309486874" width="10.4475508" height="4.76133652"></rect>
            </g>
            <g id="Group" opacity="0.2" transform="translate(223.706100, 304.725537)" fill="#619FE8">
                <rect id="Rectangle-path" x="0.180868762" y="0.309486874" width="10.4475508" height="4.76133652"></rect>
            </g>
            <g id="Group" opacity="0.2" transform="translate(242.268946, 304.725537)" fill="#619FE8">
                <rect id="Rectangle-path" x="0.0237985213" y="0.309486874" width="10.4475508" height="4.76133652"></rect>
            </g>
            <g id="Group" opacity="0.2" transform="translate(260.355823, 304.725537)" fill="#619FE8">
                <rect id="Rectangle-path" x="0.337939002" y="0.309486874" width="10.4475508" height="4.76133652"></rect>
            </g>
            <g id="Group" opacity="0.2" transform="translate(278.918669, 304.725537)" fill="#619FE8">
                <rect id="Rectangle-path" x="0.180868762" y="0.309486874" width="10.4475508" height="4.76133652"></rect>
            </g>
            <g id="Group" opacity="0.2" transform="translate(297.481516, 304.725537)" fill="#619FE8">
                <rect id="Rectangle-path" x="0.0237985213" y="0.309486874" width="10.4475508" height="4.76133652"></rect>
            </g>
            <rect id="Rectangle-path" fill="#F6F7F9" x="254.234843" y="100.507053" width="15.8640943" height="4.76133652"></rect>
            <rect id="Rectangle-path" fill="#619FE8" x="150.268623" y="270.434391" width="10.4475508" height="29.8392959"></rect>
            <rect id="Rectangle-path" fill="#619FE8" x="168.674399" y="256.626516" width="10.4475508" height="43.6471718"></rect>
            <rect id="Rectangle-path" fill="#619FE8" x="187.080176" y="245.042184" width="10.4475508" height="55.2315036"></rect>
            <rect id="Rectangle-path" fill="#619FE8" x="205.481192" y="251.046229" width="10.4475508" height="49.2226969"></rect>
            <rect id="Rectangle-path" fill="#619FE8" x="223.886969" y="240.599857" width="10.4475508" height="59.6738305"></rect>
            <g id="Group" opacity="0.2" transform="translate(242.268946, 263.301909)" fill="#619FE8">
                <rect id="Rectangle-path" x="0.0237985213" y="0.152362768" width="10.4475508" height="36.8194153"></rect>
            </g>
            <g id="Group" opacity="0.2" transform="translate(260.355823, 263.301909)" fill="#619FE8">
                <rect id="Rectangle-path" x="0.337939002" y="0.152362768" width="10.4475508" height="36.8194153"></rect>
            </g>
            <g id="Group" opacity="0.2" transform="translate(278.918669, 263.301909)" fill="#619FE8">
                <rect id="Rectangle-path" x="0.180868762" y="0.152362768" width="10.4475508" height="36.8194153"></rect>
            </g>
            <g id="Group" opacity="0.2" transform="translate(297.481516, 263.301909)" fill="#619FE8">
                <rect id="Rectangle-path" x="0.0237985213" y="0.152362768" width="10.4475508" height="36.8194153"></rect>
            </g>
            <path d="M470.963216,130.222554 C459.649399,123.713807 455.375185,122.099714 455.351386,122.090191 L455.122921,121.923544 C453.888958,120.975519 452.908004,119.737457 452.267098,118.319212 L452.267098,117.543115 L452.267098,117.619296 C452.447967,114.172088 454.899214,111.034368 457.22671,108.296599 L463.17158,101.297434 C463.849574,100.606488 464.372119,99.7785702 464.704205,98.8691527 C464.826854,98.3822759 464.881317,97.8807193 464.866035,97.3788544 L464.866035,96.7694033 C464.837477,95.0315155 464.78512,93.2888663 464.723244,91.5319332 C464.666128,90.0130668 464.275832,88.0990095 462.757486,87.7847613 C461.967375,87.6228759 460.925,87.9085561 460.506146,87.227685 C460.365678,86.9495212 460.33019,86.6300166 460.406192,86.3277924 C460.403956,86.3515465 460.403956,86.3754583 460.406192,86.3992124 L460.406192,86.3135084 C460.701768,85.1409823 460.891333,83.9442411 460.972597,82.7377446 C461.002499,82.1245272 460.918581,81.5110745 460.725092,80.9284368 C459.844547,78.4049284 456.817375,77.3717184 454.137662,76.8955847 C451.457948,76.4194511 448.459335,76.0099761 446.779159,73.9149881 C446.260351,73.2674463 445.908133,72.4865871 445.31793,71.9009427 C444.542655,71.2139241 443.597675,70.7470258 442.5811,70.5487232 C439.257612,69.7270627 435.755512,70.0318432 432.623799,71.4152864 C431.329159,71.9914081 430.02976,72.7722673 428.611368,72.6865632 C427.192976,72.6008592 425.874538,71.5771718 424.418068,71.3295823 C422.066774,70.9296301 419.815434,72.6579952 418.658826,74.7006086 C417.971841,75.9155588 417.604956,77.2852978 417.592652,78.6810859 L417.592652,78.9143914 L417.592652,78.9143914 C417.557832,80.4148914 418.105434,81.8705455 419.120518,82.9758115 C420.134335,84.0280668 421.647921,84.75179 422.066774,86.1373389 C422.238124,86.6991766 422.195287,87.3086277 422.347597,87.8799881 C422.347597,87.9514081 422.390434,88.0228282 422.414233,88.0894869 L422.338078,88.1894749 C419.91103,91.3009824 418.59712,95.13677 418.60647,99.0834129 C418.657411,106.939385 423.783317,113.859709 431.281562,116.195656 L431.281562,116.728926 C431.281562,118.890573 430.66756,121.095072 428.820795,122.718687 L412.79963,129.165537 C412.79963,129.165537 403.14219,128.018055 399.658087,142.140179 C399.097506,144.484769 398.895304,146.900796 399.058364,149.30599 C399.186876,151.434308 398.891774,155.186241 396.416728,160.038043 C392.451895,167.799021 393.356238,185.615943 401.457255,187.382399 C409.1061,189.048866 412.099954,188.334666 412.404575,188.272768 L412.404575,188.582255 C412.280823,191.915191 411.067098,220.764129 406.654852,224.254189 C405.436368,225.206456 405.664834,225.873043 406.654852,226.311086 C406.654852,226.311086 406.654852,226.496778 406.626294,226.830072 C406.493022,228.939344 405.812384,236.971718 402.861368,241.542601 C399.43914,246.832446 399.796118,277.357375 399.796118,277.357375 L397.497181,295.369511 C397.497181,295.369511 398.925092,306.48247 397.497181,308.425095 C396.212061,310.153461 394.498567,351.277124 394.165388,360.185585 L394.013078,360.185585 C392.581459,360.271502 391.285439,361.061507 390.552773,362.294857 C388.648891,365.37068 382.032902,371.050955 382.032902,371.050955 C380.604991,373.093568 375.278882,375.045716 372.465896,375.969415 C372.088863,376.090661 371.725229,376.250204 371.380684,376.445549 C370.329809,377.019143 369.485665,377.908547 368.967514,378.988103 C368.597492,379.631656 368.503086,380.39746 368.70573,381.111659 C369.429205,382.873353 384.374677,384.106539 388.153882,382.344845 C391.128697,380.954535 402.908965,379.130943 407.797181,378.416742 C409.622777,378.184569 411.060984,376.747826 411.295564,374.921921 C411.382729,374.297352 411.210761,373.664293 410.819593,373.169749 L410.819593,373.169749 C409.867652,372.007983 409.391682,368.841695 409.187015,366.775274 C409.584485,366.614926 409.955231,366.394971 410.286506,366.122971 C409.885151,359.713191 410.803702,353.289234 412.985259,347.249033 C416.588355,337.72636 417.668808,320.076086 416.793022,308.610788 C416.793022,308.610788 427.77842,261.330716 436.422043,256.916957 L436.422043,256.916957 C436.555314,257.083604 440.748614,262.473437 441.281701,279.142876 C441.824307,296.07895 447.945287,307.191909 447.945287,307.191909 C447.945287,307.191909 445.241774,335.950382 447.945287,346.711002 L444.408826,363.689928 C444.151802,363.466146 443.985213,363.294737 443.985213,363.294737 C443.985213,363.294737 444.089926,363.770871 444.237477,364.523162 L444.161322,364.880263 L444.313632,364.918353 C444.713447,367.041909 445.30841,370.741468 445.065665,372.912637 C444.922874,374.145823 444.589695,375.840859 444.34219,377.502566 C443.970933,380.116539 443.86622,382.64957 445.241774,383.216169 C447.493115,384.120823 460.729852,385.358771 462.981192,382.449594 C464.011348,381.239006 464.265917,379.548676 463.638031,378.08821 C463.474062,377.688487 463.252795,377.314771 462.981192,376.978819 C462.981192,376.978819 459.46853,371.231885 460.458549,367.179988 C460.648315,366.379383 460.496573,365.535891 460.039695,364.851695 C460.192006,362.861456 460.991636,353.657792 463.071627,345.839678 C465.322967,337.350215 470.077911,318.73815 466.579529,306.496754 L466.579529,306.496754 C466.446257,306.020621 466.293946,305.544487 466.132116,305.068353 C464.113416,298.387043 463.440401,291.371375 464.152079,284.427959 C462.853365,278.499009 462.853365,272.359057 464.152079,266.430107 C466.312985,256.550334 467.821811,246.84673 467.821811,246.84673 C467.821811,246.84673 469.016497,233.795907 467.974122,225.7921 L467.902726,225.277876 L468.473891,225.14932 C468.473891,225.14932 465.413401,211.565227 464.332948,202.923401 C464.075924,200.880788 463.742745,198.295382 463.381007,195.533807 C464.378717,195.374319 465.361138,195.13062 466.317745,194.805322 C476.008503,191.439057 479.054713,161.099821 479.054713,161.099821 L479.054713,151.481921 C479.054713,151.481921 482.310351,136.750346 470.963216,130.222554 Z M398.520518,364.51364 C398.220656,364.361277 398.044547,364.261289 398.044547,364.261289 L398.044547,364.261289 L398.520518,364.51364 Z" id="Shape" fill="url(#linearGradient-2)"></path>
            <path d="M465.094501,305.325465 C469.311599,317.457351 464.390065,337.145477 462.105407,345.934905 C459.820749,354.724332 459.116312,365.280215 459.116312,365.280215 C450.153789,366.684809 443.652033,364.923115 443.652033,364.923115 L447.340804,346.830036 C444.703928,336.107506 447.340804,307.449021 447.340804,307.449021 C447.340804,307.449021 441.367375,296.374153 440.839048,279.495215 C440.32024,262.87815 436.226895,257.512124 436.079344,257.345477 L436.079344,257.345477 C427.645148,261.740191 416.921534,308.863138 416.921534,308.863138 C417.802079,320.290346 416.745425,337.8692 413.232763,347.363305 C411.102234,353.393803 410.205506,359.791251 410.595887,366.175346 C409.367884,367.213317 407.65915,367.389487 405.812384,367.094284 C400.809935,366.26105 394.807948,361.937757 394.807948,361.937757 C394.807948,361.937757 396.71183,310.605788 398.139741,308.667924 C399.567652,306.73006 398.139741,295.655191 398.139741,295.655191 L400.41964,277.723998 C400.41964,277.723998 400.072181,247.303819 403.408734,242.013974 C406.293115,237.457375 406.954713,229.453568 407.083226,227.353819 C407.083226,227.020525 407.111784,226.834833 407.111784,226.834833 L412.195148,220.740322 C412.195148,220.740322 461.41049,217.050286 465.099261,220.740322 C466.008364,221.649737 466.56525,223.706635 466.898429,226.301563 C467.912246,234.276802 466.750878,247.284773 466.750878,247.284773 C466.750878,247.284773 465.27537,256.955048 463.166821,266.806253 C461.896809,272.715808 461.896809,278.827891 463.166821,284.737446 C462.466908,291.660228 463.12166,298.653108 465.094501,305.325465 L465.094501,305.325465 Z" id="Shape" fill="#65617D"></path>
            <path d="M462.019732,382.421026 C459.820749,385.32068 446.902911,384.087494 444.703928,383.187601 C443.361691,382.630525 443.466405,380.107017 443.828142,377.502566 C444.056608,375.845621 444.394547,374.16963 444.532579,372.926921 C444.884797,369.760632 443.475924,363.342351 443.475924,363.342351 C443.475924,363.342351 446.379344,366.418174 447.07902,363.342351 C447.388401,361.999654 448.468854,361.30926 449.587384,360.961683 C451.094232,360.508966 452.713253,360.610295 454.151941,361.247363 C456.431839,362.237721 460.244362,364.351754 459.558965,367.208556 C458.607024,371.246169 462.019732,376.974057 462.019732,376.974057 C462.284184,377.309767 462.498984,377.681787 462.657532,378.078687 C463.271396,379.531814 463.025499,381.205953 462.019732,382.421026 Z" id="Shape" fill="#A27772"></path>
            <path d="M462.019732,382.421026 C459.820749,385.32068 446.902911,384.087494 444.703928,383.187601 C443.361691,382.630525 443.466405,380.107017 443.828142,377.502566 C445.213216,378.150107 447.57403,378.6929 451.505545,378.326277 C452.424686,378.240587 453.348253,378.211964 454.270933,378.240573 C457.067094,378.36911 459.86868,378.31344 462.657532,378.073926 C463.273344,379.52838 463.027364,381.204925 462.019732,382.421026 Z" id="Shape" fill="#000000" opacity="0.1"></path>
            <path d="M416.935813,308.844093 C417.816359,320.271301 416.759704,337.850155 413.247043,347.34426 C411.116513,353.374758 410.219785,359.772206 410.610166,366.156301 C409.382163,367.194272 407.673429,367.370442 405.826664,367.075239 C406.888078,359.647554 411.405037,327.708508 414.322736,302.468663 C417.597412,273.724475 433.018854,253.945883 433.018854,253.945883 L436.093623,257.331193 C427.649908,261.721146 416.935813,308.844093 416.935813,308.844093 Z" id="Shape" fill="#000000" opacity="0.1"></path>
            <path d="M456.74598,124.061384 L454.599353,134.607745 L444.089926,152.277064 L431.129251,146.73963 C431.129251,146.73963 413.518346,128.279928 424.584658,125.642148 C425.910401,125.358897 427.162118,124.800946 428.25915,124.004248 C430.434335,122.366348 431.114972,119.980919 431.114972,117.647864 C431.114972,113.795943 429.315804,110.0821 429.315804,110.0821 L451.986275,102.940095 C451.049844,105.920195 450.502698,109.008949 450.358457,112.129475 C450.187107,118.319212 452.481285,121.347422 454.361368,122.79963 C455.065113,123.373664 455.875592,123.802507 456.74598,124.061384 L456.74598,124.061384 Z" id="Shape" fill="#FBBEBE"></path>
            <path d="M452.000555,102.963902 C451.064123,105.944002 450.516977,109.032756 450.372736,112.153282 C449.960633,112.644957 449.520417,113.11235 449.054298,113.553115 C444.286885,118.112048 437.402358,119.684731 431.129251,117.647864 C431.129251,113.795943 429.330083,110.0821 429.330083,110.0821 L452.000555,102.963902 Z" id="Shape" fill="#000000" opacity="0.1"></path>
            <path d="M454.599353,100.064248 C454.597423,107.318038 450.226843,113.856141 443.526223,116.628929 C436.825602,119.401717 429.11501,117.862931 423.990971,112.730322 C418.866932,107.597713 417.338916,99.8824398 420.119651,93.1832104 C422.900385,86.483981 429.442047,82.1205893 436.693346,82.1282936 C441.451109,82.1130144 446.018067,83.9985486 449.380097,87.3662008 C452.742126,90.733853 454.620946,95.3048775 454.599353,100.064248 L454.599353,100.064248 Z" id="Shape" fill="#FBBEBE"></path>
            <path d="M456.74598,124.061384 L454.599353,134.607745 L444.089926,152.277064 L431.129251,146.73963 C431.129251,146.73963 413.518346,128.279928 424.584658,125.642148 C425.910401,125.358897 427.162118,124.800946 428.25915,124.004248 C426.260074,129.503592 434.513401,140.940322 434.513401,140.940322 C435.465342,142.368723 437.678604,141.464069 437.678604,141.464069 C442.990434,140.664165 452.781146,125.36599 454.375647,122.823437 C455.077122,123.387338 455.882471,123.807946 456.74598,124.061384 L456.74598,124.061384 Z" id="Shape" fill="#000000" opacity="0.1"></path>
            <path d="M466.893669,226.330131 C463.776063,227.03957 446.507856,230.867685 439.958503,229.910656 C432.75707,228.85364 418.744501,228.153723 418.744501,228.153723 C418.744501,228.153723 409.824815,228.629857 407.078466,227.382387 C407.078466,227.049093 407.107024,226.863401 407.107024,226.863401 L412.190388,220.76889 C412.190388,220.76889 461.40573,217.078854 465.094501,220.76889 C466.003604,221.668783 466.56049,223.72568 466.893669,226.330131 Z" id="Shape" fill="#000000" opacity="0.1"></path>
            <path d="M434.513401,141.464069 C434.513401,141.464069 425.241497,128.608461 428.73512,123.613819 L413.070933,130.036862 C413.070933,130.036862 403.641959,128.894141 400.219732,142.968652 C399.673475,145.307398 399.47619,147.714133 399.634288,150.110656 C399.758041,152.234212 399.472458,155.971862 397.054529,160.804618 C393.184889,168.54179 394.065434,186.296814 401.976063,188.058508 C409.886691,189.820203 412.694917,188.934594 412.694917,188.934594 C412.694917,188.934594 411.643022,221.111706 407.073706,224.801742 C402.50439,228.491778 418.720702,227.615692 418.720702,227.615692 C418.720702,227.615692 432.733272,228.32037 439.939464,229.372625 C447.145656,230.424881 467.35536,225.682589 467.35536,225.682589 C467.35536,225.682589 464.366266,212.141348 463.314372,203.528091 C462.262477,194.914833 459.79695,176.569403 459.79695,176.569403 L477.726756,152.286587 C477.726756,152.286587 480.8872,137.607387 469.816128,131.103401 C458.745055,124.599415 454.585074,123.009129 454.585074,123.009129 C454.585074,123.009129 443.475924,141.102208 437.678604,141.992578 C437.678604,141.992578 435.474861,142.878186 434.513401,141.464069 Z" id="Shape" fill="#32BC9D"></path>
            <path d="M413.951479,146.563461 C413.951479,146.563461 413.77537,152.36753 414.827264,154.657733 C415.879159,156.947936 419.748799,169.603568 419.748799,169.603568 L410.962384,169.603568 C410.962384,169.603568 415.722089,164.504177 415.355591,162.042566 C414.989094,159.580955 413.951479,146.563461 413.951479,146.563461 Z" id="Shape" fill="#000000" opacity="0.1"></path>
            <path d="M439.963262,190.34395 C439.963262,190.34395 420.553189,185.582613 418.744501,181.549761 C416.935813,177.516909 411.942884,168.460847 411.942884,168.460847 L413.989556,165.699272 L423.43281,173.112673 C423.43281,173.112673 434.679991,182.07827 439.953743,182.959117 C445.227495,183.839964 439.963262,190.34395 439.963262,190.34395 Z" id="Shape" fill="#FBBEBE"></path>
            <path d="M439.963262,190.34395 C439.963262,190.34395 420.553189,185.582613 418.744501,181.549761 C416.935813,177.516909 411.942884,168.460847 411.942884,168.460847 L413.989556,165.699272 L423.43281,173.112673 C423.43281,173.112673 434.679991,182.07827 439.953743,182.959117 C445.227495,183.839964 439.963262,190.34395 439.963262,190.34395 Z" id="Shape" fill="#000000" opacity="0.05"></path>
            <path d="M456.74598,167.489535 L456.74598,178.021611 L455.051525,178.021611 C446.689424,178.023217 438.465244,180.15329 431.15305,184.211348 L427.983087,185.973043 L427.1311,186.449177 L421.681238,174.174451 L426.778882,169.603568 L427.040665,169.603568 C428.287708,169.722601 433.680453,170.174928 435.965111,169.403592 C438.135536,168.665585 440.829529,166.327768 447.221811,167.975191 C450.372736,168.779857 453.061969,172.312768 456.117699,171.208138 L456.74598,167.489535 Z" id="Shape" fill="#FBBEBE"></path>
            <path d="M473.704806,148.325155 L477.222227,152.277064 L477.222227,161.861635 C477.222227,161.861635 474.233133,192.100883 464.742283,195.443341 C455.251433,198.7858 438.311645,193.505477 438.311645,193.505477 C438.311645,193.505477 433.932717,181.9021 435.97939,181.202184 C438.026063,180.502267 454.066266,176.259916 454.066266,176.259916 C454.066266,176.259916 453.84256,158.519177 457.355222,153.243616 C457.355222,153.243616 455.070564,136.721778 462.981192,136.369439 C470.891821,136.0171 473.704806,148.325155 473.704806,148.325155 Z" id="Shape" fill="#000000" opacity="0.1"></path>
            <path d="M474.233133,148.325155 L477.750555,152.277064 L477.750555,161.861635 C477.750555,161.861635 474.77098,192.100883 465.251571,195.443341 C455.732163,198.7858 438.816174,193.505477 438.816174,193.505477 C438.816174,193.505477 434.442006,181.9021 436.488678,181.202184 C438.535351,180.502267 454.575555,176.259916 454.575555,176.259916 C454.575555,176.259916 454.347089,158.519177 457.86451,153.243616 C457.86451,153.243616 455.579852,136.721778 463.490481,136.369439 C471.401109,136.0171 474.233133,148.325155 474.233133,148.325155 Z" id="Shape" fill="#32BC9D"></path>
            <path d="M449.682579,107.682387 C449.753974,106.525382 449.777773,105.301718 449.282763,104.258986 C448.787754,103.216253 447.626386,102.383019 446.493577,102.649654 C444.98951,103.001993 444.34219,104.958902 442.866682,105.430274 C441.624399,105.825465 440.267884,104.954141 439.67768,103.782852 C439.087477,102.611563 439.068438,101.259344 439.063678,99.9737828 L439.063678,95.5695465 C439.063678,93.9697375 439.011322,92.236611 438.026063,90.9891408 C436.802819,89.4226611 433.923198,88.74179 432.000277,88.8036874 C430.719396,88.8185777 429.490972,89.3148746 428.559011,90.1939976 C427.530915,91.0653222 426.340989,91.712864 424.936876,91.4795585 C423.746447,91.2990826 422.765328,90.4509569 422.414233,89.2988663 L422.414233,89.2417303 C426.488479,83.8570021 433.24153,81.2188328 439.88546,82.4163626 C446.52939,83.6138925 451.937251,88.4439955 453.876464,94.9126149 C455.815678,101.381234 453.957313,108.391158 449.068577,113.048413 C449.373912,111.272705 449.578904,109.481185 449.682579,107.682387 L449.682579,107.682387 Z" id="Shape" fill="#000000" opacity="0.1"></path>
            <path d="M424.927357,90.9367661 C423.736206,90.7544141 422.755281,89.9046051 422.404713,88.7513126 C422.257163,88.1847136 422.29524,87.5800239 422.128651,87.0134248 C421.719316,85.6326372 420.224769,84.9136754 419.272828,83.8661814 C417.292791,81.7616706 417.421303,78.3049403 418.825416,75.7719093 C419.958226,73.7340573 422.157209,72.0152148 424.446627,72.4104057 C425.874538,72.6579952 427.097782,73.6721599 428.539972,73.7626253 C429.982163,73.8530907 431.191128,73.0722315 432.457209,72.4961098 C435.504141,71.1156605 438.929536,70.8117853 442.171765,71.6343079 C443.168356,71.834563 444.092478,72.3000725 444.846719,72.9817661 C445.356924,73.624863 445.833531,74.2939312 446.27463,74.9862888 C447.916728,77.0765155 450.848706,77.4859905 453.461784,77.9573628 C456.074861,78.4287351 459.025878,79.4619451 459.887384,81.9759308 C460.453789,83.6423986 459.887384,85.4517064 459.578004,87.1848329 C459.467795,87.5379837 459.491518,87.9193734 459.64464,88.2561337 C460.053974,88.9322434 461.072551,88.6513246 461.843623,88.81321 C463.328651,89.1226969 463.709427,91.0319928 463.747505,92.5460979 C463.810967,94.2792243 463.858564,96.0123508 463.890296,97.7454773 C464.069161,99.3757026 463.454799,100.992721 462.238678,102.092578 L456.436599,109.067936 C453.861599,112.162804 451.129529,115.767136 451.648336,119.757136 C450.429852,120.30469 448.982902,119.247673 448.583087,117.971635 C448.183272,116.695597 448.506932,115.324332 448.773475,114.014964 C449.243109,111.751215 449.550102,109.456733 449.692098,107.149117 C449.763494,105.987351 449.787292,104.768449 449.292283,103.725716 C448.797274,102.682983 447.635906,101.821181 446.503096,102.111623 C444.99903,102.463962 444.35171,104.420871 442.876201,104.892243 C441.638678,105.287434 440.277403,104.41611 439.6872,103.244821 C439.096996,102.073532 439.077957,100.721313 439.073198,99.4357518 L439.073198,95.0267542 C439.073198,93.4317064 439.020841,91.6938186 438.035582,90.4463484 C436.812338,88.8798687 433.932717,88.1989976 432.009797,88.260895 C430.729101,88.2767146 429.501003,88.7728803 428.56853,89.6512053 C427.521396,90.5225298 426.33147,91.1653103 424.927357,90.9367661 Z" id="Shape" fill="#7C5C5C"></path>
            <path d="M428.977865,146.125418 L434.480083,168.741766 C434.480083,168.741766 438.820933,168.717959 428.977865,146.125418 Z" id="Shape" fill="#000000" opacity="0.1"></path>
            <path d="M447.783457,142.344916 C447.783457,142.344916 440.577264,154.153031 443.39025,166.356337 L444.732486,166.456325 C444.732486,166.456325 442.333595,160.804618 447.783457,142.344916 Z" id="Shape" fill="#000000" opacity="0.1"></path>
            <path d="M452.352773,209.15599 C452.352773,209.15599 461.201063,206.227768 461.843623,213.022196 C461.843623,213.022196 460.172967,208.365609 452.352773,209.15599 Z" id="Shape" fill="#000000" opacity="0.1"></path>
            <path d="M426.778882,170.14636 C426.778882,170.14636 425.022551,182.454415 428.206793,187.377637 C428.206793,187.377637 421.771673,190.015418 412.737754,189.486909 L411.666821,170.14636 L426.778882,170.14636 Z" id="Shape" fill="#000000" opacity="0.1"></path>
            <path d="M427.983087,185.968282 L427.1311,186.444415 L421.681238,174.16969 L426.778882,169.598807 L427.040665,169.598807 L427.040665,169.598807 C426.95975,170.189212 425.541359,180.759379 427.983087,185.968282 Z" id="Shape" fill="#000000" opacity="0.1"></path>
            <path d="M426.778882,169.598807 C426.778882,169.598807 425.022551,181.9021 428.206793,186.825322 C428.206793,186.825322 421.771673,189.463103 412.737754,188.934594 L406.588216,169.598807 L426.778882,169.598807 Z" id="Shape" fill="#32BC9D"></path>
            <path d="M411.576386,374.936205 C411.366832,376.739848 409.962314,378.172281 408.163678,378.416742 C403.403974,379.130943 391.895009,380.949773 388.99159,382.330561 C385.302819,384.087494 370.714325,382.859069 370.009889,381.102136 C369.811344,380.391803 369.902043,379.631726 370.262153,378.988103 C370.769976,377.91359 371.602464,377.025854 372.642006,376.45031 C372.977572,376.256946 373.331532,376.09745 373.69866,375.974177 C376.445009,375.055239 381.633087,373.117375 383.0372,371.07 C383.0372,371.07 389.505638,365.408771 391.347643,362.347232 C392.053315,361.126383 393.320446,360.337279 394.727033,360.242721 C396.269177,360.171301 397.982671,360.947399 398.682348,364.323186 C398.682348,364.323186 407.116543,369.136897 409.396442,364.913592 C409.396442,364.913592 409.74866,371.398532 411.148013,373.169749 L411.148013,373.169749 C411.521664,373.677355 411.675993,374.313754 411.576386,374.936205 L411.576386,374.936205 Z" id="Shape" fill="#A27772"></path>
            <path d="M411.576386,374.936205 C411.366832,376.739848 409.962314,378.172281 408.163678,378.416742 C403.403974,379.130943 391.895009,380.949773 388.99159,382.330561 C385.302819,384.087494 370.714325,382.859069 370.009889,381.102136 C369.811344,380.391803 369.902043,379.631726 370.262153,378.988103 C370.769976,377.91359 371.602464,377.025854 372.642006,376.45031 C375.021858,378.031074 380.30037,379.573747 391.914048,377.759678 C402.98988,376.031313 408.473059,374.336277 411.148013,373.179272 L411.148013,373.179272 C411.519154,373.684409 411.673356,374.316856 411.576386,374.936205 L411.576386,374.936205 Z" id="Shape" fill="#000000" opacity="0.1"></path>
            <g id="Group" opacity="0.1" transform="translate(417.426063, 79.514320)" fill="#000000">
                <path d="M42.1138632,7.9276253 L42.1138632,7.84192124 C42.3661275,6.52303103 42.7421442,5.16128878 42.6564695,3.8471599 C42.5436636,4.92570941 42.3624294,5.9959943 42.1138632,7.05153938 C42.0473448,7.33977752 42.0473448,7.63938716 42.1138632,7.9276253 L42.1138632,7.9276253 Z" id="Shape"></path>
                <path d="M31.8519409,24.3828043 C32.1290321,25.0169016 32.2763084,25.7001095 32.2850739,26.3920883 C32.366566,25.4376458 32.2180341,24.477572 31.8519409,23.5924224 C31.3759704,22.5401671 30.2003235,21.7116945 29.0675139,21.9783294 C27.5634473,22.3306683 26.9161275,24.2875776 25.4406192,24.7589499 C24.1983364,25.1541408 22.8418207,24.2828162 22.2468577,23.1115274 C21.6518946,21.9402387 21.6423752,20.5880191 21.6376155,19.3024582 L21.6376155,14.8934606 C21.6376155,13.2984129 21.5852588,11.5605251 20.6,10.3130549 C19.376756,8.74657518 16.4923752,8.06570406 14.5742144,8.12760143 C13.2933329,8.14249174 12.0649094,8.63878868 11.1329482,9.51791169 C10.1000924,10.3939976 8.91492606,11.036778 7.51081331,10.8082339 C6.31966254,10.6258819 5.338738,9.7760729 4.98817006,8.62278043 C4.84061922,8.05618138 4.87869686,7.45149165 4.71210721,6.8848926 C4.29801294,5.50410501 2.80822551,4.7851432 1.85628466,3.73764916 C0.930784328,2.71720654 0.405080532,1.39657803 0.376016636,0.0190453461 C0.227766205,1.66181528 0.763283933,3.29303458 1.85628466,4.52803103 C2.84630314,5.57552506 4.31705176,6.29924821 4.71210721,7.6800358 C4.87869686,8.24187351 4.84061922,8.84656325 4.98817006,9.41316229 C5.338738,10.5664548 6.31966254,11.4162638 7.51081331,11.5986158 C8.93872458,11.8271599 10.1000924,11.1843795 11.1329482,10.3082936 C12.0649094,9.42917054 13.2933329,8.9328736 14.5742144,8.91798329 C16.4780961,8.85608592 19.376756,9.54171838 20.6,11.1034368 C21.5852588,12.3604296 21.6328558,14.0887947 21.6376155,15.6838425 L21.6376155,20.0928401 C21.6376155,21.3974463 21.6376155,22.7544272 22.2468577,23.9019093 C22.8560998,25.0493914 24.1983364,25.9445227 25.4406192,25.5493317 C26.9161275,25.0731981 27.5634473,23.1210501 29.0675139,22.7687112 C30.2146026,22.5068377 31.3616913,23.3305489 31.8519409,24.3828043 Z" id="Shape"></path>
                <path d="M46.2976433,19.5405251 C45.9768904,20.4438335 45.4673939,21.2683971 44.8030961,21.959284 C42.8706562,24.2859905 40.9366297,26.6111098 39.0010166,28.934642 C36.5592884,31.8723866 33.9700092,35.2719809 34.1603974,39.0191527 C34.3365065,35.5814678 36.7306377,32.4532697 39.0010166,29.7250239 L44.8030961,22.7544272 C45.4664689,22.0609936 45.9757884,21.2350938 46.2976433,20.3309069 C46.4413109,19.7069391 46.4926283,19.0652526 46.4499538,18.4263723 C46.4451224,18.8026049 46.3939668,19.1768085 46.2976433,19.5405251 Z" id="Shape"></path>
                <path d="M31.1665434,37.8383413 C31.0727326,37.5286333 31.0152302,37.209066 30.9951941,36.886074 C30.9453067,37.4694079 31.0033947,38.0569433 31.1665434,38.6192005 C31.5663586,39.8952387 33.0180684,40.947494 34.2365527,40.3999403 C34.2032348,40.1428282 34.1841959,39.885716 34.1746765,39.6286038 C32.9466728,40.1333055 31.5378004,39.0953341 31.1665434,37.8383413 Z" id="Shape"></path>
            </g>
            <path d="M390.171996,363.932757 C390.171996,363.932757 392.009242,367.165704 398.663309,364.318425" id="Shape" fill="#000000" opacity="0.1"></path>
            <path d="M446.450739,364.7279 C446.450739,364.7279 452.190943,371.488998 459.425693,366.941921" id="Shape" fill="#000000" opacity="0.1"></path>
            <path d="M463.162061,284.75173 C463.162061,284.75173 459.102033,287.289523 458.973521,288.74173 C458.845009,290.193938 461.067791,287.684714 461.067791,287.684714 L463.162061,284.75173 Z" id="Shape" fill="#000000" opacity="0.1"></path>
            <path d="M464.775601,304.192267 C463.36492,305.36709 461.611152,306.05213 459.777911,306.144415 C456.74598,306.277733 456.998244,310.234403 458.978281,309.044069 C460.958318,307.853735 464.775601,304.192267 464.775601,304.192267 Z" id="Shape" fill="#000000" opacity="0.1"></path>
            <path d="M465.532394,306.73006 C465.532394,306.73006 463.585675,316.300346 462.005453,314.452947" id="Shape" fill="#000000" opacity="0.1"></path>
            <path d="M65.0937153,351.248556 C65.0937153,351.248556 67.706793,354.667196 63.8847505,359.818962 C60.0627079,364.970728 56.9117837,369.341635 58.1731054,372.560298 C58.1731054,372.560298 63.9371072,362.970967 68.6444547,362.837649 C73.3518022,362.704332 70.2579945,357.014535 65.0937153,351.248556 Z" id="Shape" fill="#619FE8" opacity="0.530230978"></path>
            <path d="M65.0937153,351.248556 C65.3227193,351.57772 65.5023191,351.938647 65.6268022,352.319857 C70.2056377,357.700167 72.647366,362.723377 68.2446396,362.851933 C64.1465342,362.966205 59.2012015,370.303425 58.049353,372.155585 C58.0881895,372.297514 58.1342602,372.437363 58.1873845,372.574582 C58.1873845,372.574582 63.9513863,362.985251 68.6587338,362.851933 C73.3660813,362.718616 70.2579945,357.014535 65.0937153,351.248556 Z" id="Shape" fill="#000000" opacity="0.1"></path>
            <path d="M69.9533734,355.605179 C69.9533734,356.809797 69.8201017,357.785871 69.653512,357.785871 C69.4869224,357.785871 69.3488909,356.809797 69.3488909,355.605179 C69.3488909,354.400561 69.5202403,354.971921 69.6868299,354.971921 C69.8534196,354.971921 69.9533734,354.410084 69.9533734,355.605179 Z" id="Shape" fill="#FFD037"></path>
            <path d="M71.6240296,357.043103 C70.5673752,357.619224 69.6439926,357.966802 69.5630776,357.823962 C69.4821627,357.681122 70.2770333,357.090716 71.3336876,356.514594 C72.390342,355.938473 71.971488,356.35747 72.052403,356.514594 C72.1333179,356.671718 72.6806839,356.466981 71.6240296,357.043103 Z" id="Shape" fill="#FFD037"></path>
            <path d="M51.2810536,351.248556 C51.2810536,351.248556 48.667976,354.667196 52.4900185,359.818962 C56.312061,364.970728 59.4629852,369.341635 58.2016636,372.560298 C58.2016636,372.560298 52.4376617,362.970967 47.7303142,362.837649 C43.0229667,362.704332 46.1215342,357.014535 51.2810536,351.248556 Z" id="Shape" fill="#4990E2" opacity="0.549026268"></path>
            <path d="M51.2810536,351.248556 C51.0541424,351.578956 50.8746974,351.939572 50.7479667,352.319857 C46.1691312,357.700167 43.727403,362.723377 48.1301294,362.851933 C52.2329945,362.966205 57.1735675,370.303425 58.3254159,372.155585 C58.2887063,372.298147 58.2425948,372.438119 58.1873845,372.574582 C58.1873845,372.574582 52.4233826,362.985251 47.7160351,362.851933 C43.0086876,362.718616 46.1215342,357.014535 51.2810536,351.248556 Z" id="Shape" fill="#000000" opacity="0.1"></path>
            <path d="M46.4213956,355.605179 C46.4213956,356.809797 46.5546673,357.785871 46.7212569,357.785871 C46.8878466,357.785871 47.025878,356.809797 47.025878,355.605179 C47.025878,354.400561 46.8545287,354.971921 46.687939,354.971921 C46.5213494,354.971921 46.4213956,354.410084 46.4213956,355.605179 Z" id="Shape" fill="#FFD037"></path>
            <path d="M44.7554991,357.043103 C45.8121534,357.619224 46.7307763,357.966802 46.8116913,357.823962 C46.8926063,357.681122 46.0977357,357.090716 45.0410813,356.514594 C43.984427,355.938473 44.403281,356.35747 44.322366,356.514594 C44.241451,356.671718 43.6988447,356.466981 44.7554991,357.043103 Z" id="Shape" fill="#FFD037"></path>
            <path d="M47.2543438,372.127017 C47.2543438,372.127017 54.5652495,371.903234 56.7737523,370.331993 C58.9822551,368.760752 68.0161738,366.889547 68.5635397,369.408294 C69.1109057,371.927041 79.5489372,381.925847 71.29561,381.992506 C63.0422828,382.059165 52.1187616,380.706945 49.9197782,379.364248 C47.7207948,378.021551 47.2543438,372.127017 47.2543438,372.127017 Z" id="Shape" fill="#A8A8A8"></path>
            <path d="M71.4384011,381.11642 C63.1850739,381.183079 52.2615527,379.830859 50.0625693,378.488162 C48.3871534,377.469236 47.7207948,373.807768 47.4970887,372.117494 L47.2543438,372.117494 C47.2543438,372.117494 47.7303142,378.01679 49.9150185,379.354726 C52.0997227,380.692661 63.0375231,382.049642 71.2908503,381.982983 C73.6707024,381.982983 74.4988909,381.11642 74.4512939,379.859427 C74.1228743,380.626002 73.2137708,381.102136 71.4384011,381.11642 Z" id="Shape" fill="#000000" opacity="0.2"></path>
        </g>
    </g>
</svg>