<?xml version="1.0" encoding="UTF-8"?>
<svg width="582px" height="447px" viewBox="0 0 582 447" version="1.1" xmlns="http://www.w3.org/2000/svg" xmlns:xlink="http://www.w3.org/1999/xlink">
    <!-- Generator: Sketch 43.1 (39012) - http://www.bohemiancoding.com/sketch -->
    <title>undraw_co-workers_ujs6</title>
    <desc>Created with Sketch.</desc>
    <defs>
        <linearGradient x1="-0.0079491256%" y1="49.9857218%" x2="100%" y2="49.9857218%" id="linearGradient-1">
            <stop stop-color="#808080" stop-opacity="0.25" offset="0%"></stop>
            <stop stop-color="#808080" stop-opacity="0.12" offset="54%"></stop>
            <stop stop-color="#808080" stop-opacity="0.1" offset="100%"></stop>
        </linearGradient>
        <linearGradient x1="40665%" y1="56923%" x2="58077%" y2="56923%" id="linearGradient-2">
            <stop stop-color="#808080" stop-opacity="0.25" offset="0%"></stop>
            <stop stop-color="#808080" stop-opacity="0.12" offset="54%"></stop>
            <stop stop-color="#808080" stop-opacity="0.1" offset="100%"></stop>
        </linearGradient>
        <linearGradient x1="40665%" y1="56688%" x2="58077%" y2="56688%" id="linearGradient-3">
            <stop stop-color="#808080" stop-opacity="0.25" offset="0%"></stop>
            <stop stop-color="#808080" stop-opacity="0.12" offset="54%"></stop>
            <stop stop-color="#808080" stop-opacity="0.1" offset="100%"></stop>
        </linearGradient>
        <linearGradient x1="45031%" y1="39369%" x2="53932%" y2="39369%" id="linearGradient-4">
            <stop stop-color="#808080" stop-opacity="0.25" offset="0%"></stop>
            <stop stop-color="#808080" stop-opacity="0.12" offset="54%"></stop>
            <stop stop-color="#808080" stop-opacity="0.1" offset="100%"></stop>
        </linearGradient>
        <linearGradient x1="33262%" y1="58520%" x2="48591%" y2="58520%" id="linearGradient-5">
            <stop stop-color="#808080" stop-opacity="0.25" offset="0%"></stop>
            <stop stop-color="#808080" stop-opacity="0.12" offset="54%"></stop>
            <stop stop-color="#808080" stop-opacity="0.1" offset="100%"></stop>
        </linearGradient>
        <linearGradient x1="51225%" y1="53581%" x2="66630%" y2="53581%" id="linearGradient-6">
            <stop stop-color="#808080" stop-opacity="0.25" offset="0%"></stop>
            <stop stop-color="#808080" stop-opacity="0.12" offset="54%"></stop>
            <stop stop-color="#808080" stop-opacity="0.1" offset="100%"></stop>
        </linearGradient>
        <linearGradient x1="33424%" y1="33517%" x2="37557%" y2="33517%" id="linearGradient-7">
            <stop stop-color="#808080" stop-opacity="0.25" offset="0%"></stop>
            <stop stop-color="#808080" stop-opacity="0.12" offset="54%"></stop>
            <stop stop-color="#808080" stop-opacity="0.1" offset="100%"></stop>
        </linearGradient>
        <linearGradient x1="40405%" y1="35024%" x2="43254%" y2="35024%" id="linearGradient-8">
            <stop stop-color="#808080" stop-opacity="0.25" offset="0%"></stop>
            <stop stop-color="#808080" stop-opacity="0.12" offset="54%"></stop>
            <stop stop-color="#808080" stop-opacity="0.1" offset="100%"></stop>
        </linearGradient>
        <linearGradient x1="55415%" y1="50296%" x2="56483%" y2="50296%" id="linearGradient-9">
            <stop stop-color="#808080" stop-opacity="0.25" offset="0%"></stop>
            <stop stop-color="#808080" stop-opacity="0.12" offset="54%"></stop>
            <stop stop-color="#808080" stop-opacity="0.1" offset="100%"></stop>
        </linearGradient>
        <linearGradient x1="38215%" y1="52348%" x2="40105%" y2="52348%" id="linearGradient-10">
            <stop stop-color="#808080" stop-opacity="0.25" offset="0%"></stop>
            <stop stop-color="#808080" stop-opacity="0.12" offset="54%"></stop>
            <stop stop-color="#808080" stop-opacity="0.1" offset="100%"></stop>
        </linearGradient>
        <linearGradient x1="39631%" y1="60361%" x2="45031%" y2="60361%" id="linearGradient-11">
            <stop stop-color="#808080" stop-opacity="0.25" offset="0%"></stop>
            <stop stop-color="#808080" stop-opacity="0.12" offset="54%"></stop>
            <stop stop-color="#808080" stop-opacity="0.1" offset="100%"></stop>
        </linearGradient>
        <linearGradient x1="46647%" y1="36378%" x2="53498%" y2="36378%" id="linearGradient-12">
            <stop stop-color="#808080" stop-opacity="0.25" offset="0%"></stop>
            <stop stop-color="#808080" stop-opacity="0.12" offset="54%"></stop>
            <stop stop-color="#808080" stop-opacity="0.1" offset="100%"></stop>
        </linearGradient>
        <linearGradient x1="35599%" y1="25844%" x2="46517%" y2="25844%" id="linearGradient-13">
            <stop stop-color="#808080" stop-opacity="0.25" offset="0%"></stop>
            <stop stop-color="#808080" stop-opacity="0.12" offset="54%"></stop>
            <stop stop-color="#808080" stop-opacity="0.1" offset="100%"></stop>
        </linearGradient>
        <linearGradient x1="43613%" y1="29932%" x2="56669%" y2="29932%" id="linearGradient-14">
            <stop stop-color="#808080" stop-opacity="0.25" offset="0%"></stop>
            <stop stop-color="#808080" stop-opacity="0.12" offset="54%"></stop>
            <stop stop-color="#808080" stop-opacity="0.1" offset="100%"></stop>
        </linearGradient>
        <linearGradient x1="48888%" y1="37559%" x2="56207%" y2="37559%" id="linearGradient-15">
            <stop stop-color="#808080" stop-opacity="0.25" offset="0%"></stop>
            <stop stop-color="#808080" stop-opacity="0.12" offset="54%"></stop>
            <stop stop-color="#808080" stop-opacity="0.1" offset="100%"></stop>
        </linearGradient>
        <linearGradient x1="48888%" y1="37676%" x2="56207%" y2="37676%" id="linearGradient-16">
            <stop stop-color="#808080" stop-opacity="0.25" offset="0%"></stop>
            <stop stop-color="#808080" stop-opacity="0.12" offset="54%"></stop>
            <stop stop-color="#808080" stop-opacity="0.1" offset="100%"></stop>
        </linearGradient>
        <linearGradient x1="57960%" y1="75822%" x2="57960%" y2="55542%" id="linearGradient-17">
            <stop stop-color="#808080" stop-opacity="0.25" offset="0%"></stop>
            <stop stop-color="#808080" stop-opacity="0.12" offset="54%"></stop>
            <stop stop-color="#808080" stop-opacity="0.1" offset="100%"></stop>
        </linearGradient>
        <linearGradient x1="57820%" y1="56804%" x2="57820%" y2="38791%" id="linearGradient-18">
            <stop stop-color="#808080" stop-opacity="0.25" offset="0%"></stop>
            <stop stop-color="#808080" stop-opacity="0.12" offset="54%"></stop>
            <stop stop-color="#808080" stop-opacity="0.1" offset="100%"></stop>
        </linearGradient>
    </defs>
    <g id="Page-1" stroke="none" stroke-width="1" fill="none" fill-rule="evenodd">
        <g id="undraw_co-workers_ujs6">
            <path d="M480.884848,393.363831 L439.145455,393.363831 L439.145455,369.80911 L480.884848,369.80911 L480.884848,393.363831 Z M440.909091,391.597227 L479.121212,391.597227 L479.121212,371.575714 L440.909091,371.575714 L440.909091,391.597227 Z" id="Shape" fill="#4990E2" fill-rule="nonzero" opacity="0.2"></path>
            <path d="M522.624242,392.186095 L480.884848,392.186095 L480.884848,368.631374 L522.624242,368.631374 L522.624242,392.186095 Z M482.648485,390.419491 L520.860606,390.419491 L520.860606,370.397978 L482.648485,370.397978 L482.648485,390.419491 Z" id="Shape" fill="#4990E2" fill-rule="nonzero" opacity="0.2"></path>
            <path d="M564.363636,392.186095 L522.624242,392.186095 L522.624242,368.631374 L564.363636,368.631374 L564.363636,392.186095 Z M524.387879,390.419491 L562.6,390.419491 L562.6,370.397978 L524.387879,370.397978 L524.387879,390.419491 Z" id="Shape" fill="#4990E2" fill-rule="nonzero" opacity="0.2"></path>
            <path d="M564.363636,368.631374 L522.624242,368.631374 L522.624242,345.076654 L564.363636,345.076654 L564.363636,368.631374 Z M524.387879,366.86477 L562.6,366.86477 L562.6,346.843258 L524.387879,346.843258 L524.387879,366.86477 Z" id="Shape" fill="#4990E2" fill-rule="nonzero" opacity="0.2"></path>
            <path d="M522.624242,368.631374 L480.884848,368.631374 L480.884848,345.076654 L522.624242,345.076654 L522.624242,368.631374 Z M482.648485,366.86477 L520.860606,366.86477 L520.860606,346.843258 L482.648485,346.843258 L482.648485,366.86477 Z" id="Shape" fill="#4990E2" fill-rule="nonzero" opacity="0.2"></path>
            <path d="M52.3212121,392.186095 L10.5818182,392.186095 L10.5818182,368.631374 L52.3212121,368.631374 L52.3212121,392.186095 Z M12.3454545,390.419491 L50.5575758,390.419491 L50.5575758,370.397978 L12.3454545,370.397978 L12.3454545,390.419491 Z" id="Shape" fill="#4990E2" fill-rule="nonzero" opacity="0.2"></path>
            <path d="M94.0606061,392.186095 L52.3212121,392.186095 L52.3212121,368.631374 L94.0606061,368.631374 L94.0606061,392.186095 Z M54.0848485,390.419491 L92.2969697,390.419491 L92.2969697,370.397978 L54.0848485,370.397978 L54.0848485,390.419491 Z" id="Shape" fill="#4990E2" fill-rule="nonzero" opacity="0.2"></path>
            <path d="M135.8,392.186095 L94.0606061,392.186095 L94.0606061,368.631374 L135.8,368.631374 L135.8,392.186095 Z M95.8242424,390.419491 L134.036364,390.419491 L134.036364,370.397978 L95.8242424,370.397978 L95.8242424,390.419491 Z" id="Shape" fill="#4990E2" fill-rule="nonzero" opacity="0.2"></path>
            <path d="M177.539394,393.363831 L135.8,393.363831 L135.8,369.80911 L177.539394,369.80911 L177.539394,393.363831 Z M137.563636,391.597227 L175.775758,391.597227 L175.775758,371.575714 L137.563636,371.575714 L137.563636,391.597227 Z" id="Shape" fill="#4990E2" fill-rule="nonzero" opacity="0.2"></path>
            <path d="M135.8,368.631374 L94.0606061,368.631374 L94.0606061,345.076654 L135.8,345.076654 L135.8,368.631374 Z M95.8242424,366.86477 L134.036364,366.86477 L134.036364,346.843258 L95.8242424,346.843258 L95.8242424,366.86477 Z" id="Shape" fill="#4990E2" fill-rule="nonzero" opacity="0.2"></path>
            <path d="M94.0606061,368.631374 L52.3212121,368.631374 L52.3212121,345.076654 L94.0606061,345.076654 L94.0606061,368.631374 Z M54.0848485,366.86477 L92.2969697,366.86477 L92.2969697,346.843258 L54.0848485,346.843258 L54.0848485,366.86477 Z" id="Shape" fill="#4990E2" fill-rule="nonzero" opacity="0.2"></path>
            <path d="M523.376727,319.378454 C523.376727,319.378454 515.652,293.097275 524.822909,273.752961 C528.723109,265.664831 529.898919,256.527674 528.173818,247.713217 C527.322506,243.534197 526.090648,239.442118 524.493697,235.488317" id="Shape" stroke="#535461" stroke-width="2"></path>
            <path d="M530.207879,223.245751 C530.207879,226.466859 524.387879,235.806306 524.387879,235.806306 C524.387879,235.806306 518.567879,226.466859 518.567879,223.245751 C518.567879,220.024419 521.174898,217.413014 524.390818,217.413014 C527.606739,217.413014 530.213758,220.024419 530.213758,223.245751 L530.207879,223.245751 Z" id="Shape" fill="#4990E2" fill-rule="nonzero"></path>
            <path d="M539.831455,241.106118 C538.067818,243.809022 528.126788,248.478746 528.126788,248.478746 C528.126788,248.478746 528.30903,237.466914 530.05503,234.76401 C531.184986,233.014681 533.160795,232.002073 535.238191,232.107625 C537.315587,232.213178 539.178963,233.420854 540.126403,235.275735 C541.073844,237.130616 540.96141,239.350901 539.831455,241.100229 L539.831455,241.106118 Z" id="Shape" fill="#4990E2" fill-rule="nonzero"></path>
            <path d="M539.408182,271.597704 C536.539333,273.046319 525.59303,272.045243 525.59303,272.045243 C525.59303,272.045243 531.295455,262.623355 534.170182,261.180629 C537.041945,259.730135 540.543852,260.886219 541.991909,263.762815 C543.439966,266.639411 542.285824,270.14721 539.414061,271.597704 L539.408182,271.597704 Z" id="Shape" fill="#4990E2" fill-rule="nonzero"></path>
            <path d="M533.905636,294.592999 C531.31897,296.50682 520.384424,297.372456 520.384424,297.372456 C520.384424,297.372456 524.417273,287.132042 527.003939,285.212332 C528.675769,283.97318 530.880573,283.721568 532.787822,284.552276 C534.695071,285.382983 536.015009,287.169806 536.250428,289.239665 C536.485847,291.309524 535.600981,293.347959 533.929152,294.587111 L533.905636,294.592999 Z" id="Shape" fill="#4990E2" fill-rule="nonzero"></path>
            <path d="M515.904788,249.108834 C518.209273,251.352421 528.955697,253.67845 528.955697,253.67845 C528.955697,253.67845 526.322,242.984607 524.017515,240.723354 C522.52526,239.271716 520.373221,238.727796 518.37205,239.296482 C516.370879,239.865169 514.824602,241.460065 514.315686,243.480389 C513.806771,245.500714 514.412533,247.639531 515.904788,249.091168 L515.904788,249.108834 Z" id="Shape" fill="#4990E2" fill-rule="nonzero"></path>
            <path d="M509.808485,276.078989 C512.677333,277.527604 523.623636,276.526529 523.623636,276.526529 C523.623636,276.526529 517.921212,267.104641 515.046485,265.661914 C512.174721,264.211421 508.672815,265.367505 507.224758,268.2441 C505.776701,271.120696 506.930843,274.628495 509.802606,276.078989 L509.808485,276.078989 Z" id="Shape" fill="#4990E2" fill-rule="nonzero"></path>
            <path d="M507.474606,303.11392 C510.061273,305.027741 520.995818,305.893377 520.995818,305.893377 C520.995818,305.893377 516.986485,295.676517 514.393939,293.739141 C512.72211,292.499989 510.517306,292.248377 508.610057,293.079085 C506.702808,293.909792 505.38287,295.696615 505.147451,297.766474 C504.912032,299.836333 505.796898,301.874768 507.468727,303.11392 L507.474606,303.11392 Z" id="Shape" fill="#4990E2" fill-rule="nonzero"></path>
            <path d="M530.207879,223.245751 C530.207879,226.466859 524.387879,235.806306 524.387879,235.806306 C524.387879,235.806306 518.567879,226.466859 518.567879,223.245751 C518.567879,220.024419 521.174898,217.413014 524.390818,217.413014 C527.606739,217.413014 530.213758,220.024419 530.213758,223.245751 L530.207879,223.245751 Z" id="Shape" fill="#000000" fill-rule="nonzero" opacity="0.25"></path>
            <path d="M539.831455,241.106118 C538.067818,243.809022 528.126788,248.478746 528.126788,248.478746 C528.126788,248.478746 528.30903,237.466914 530.05503,234.76401 C531.184986,233.014681 533.160795,232.002073 535.238191,232.107625 C537.315587,232.213178 539.178963,233.420854 540.126403,235.275735 C541.073844,237.130616 540.96141,239.350901 539.831455,241.100229 L539.831455,241.106118 Z" id="Shape" fill="#000000" fill-rule="nonzero" opacity="0.25"></path>
            <path d="M539.408182,271.597704 C536.539333,273.046319 525.59303,272.045243 525.59303,272.045243 C525.59303,272.045243 531.295455,262.623355 534.170182,261.180629 C537.041945,259.730135 540.543852,260.886219 541.991909,263.762815 C543.439966,266.639411 542.285824,270.14721 539.414061,271.597704 L539.408182,271.597704 Z" id="Shape" fill="#000000" fill-rule="nonzero" opacity="0.25"></path>
            <path d="M533.905636,294.592999 C531.31897,296.50682 520.384424,297.372456 520.384424,297.372456 C520.384424,297.372456 524.417273,287.132042 527.003939,285.212332 C528.675769,283.97318 530.880573,283.721568 532.787822,284.552276 C534.695071,285.382983 536.015009,287.169806 536.250428,289.239665 C536.485847,291.309524 535.600981,293.347959 533.929152,294.587111 L533.905636,294.592999 Z" id="Shape" fill="#000000" fill-rule="nonzero" opacity="0.25"></path>
            <path d="M515.904788,249.108834 C518.209273,251.352421 528.955697,253.67845 528.955697,253.67845 C528.955697,253.67845 526.322,242.984607 524.017515,240.723354 C522.52526,239.271716 520.373221,238.727796 518.37205,239.296482 C516.370879,239.865169 514.824602,241.460065 514.315686,243.480389 C513.806771,245.500714 514.412533,247.639531 515.904788,249.091168 L515.904788,249.108834 Z" id="Shape" fill="#000000" fill-rule="nonzero" opacity="0.25"></path>
            <path d="M509.808485,276.078989 C512.677333,277.527604 523.623636,276.526529 523.623636,276.526529 C523.623636,276.526529 517.921212,267.104641 515.046485,265.661914 C512.174721,264.211421 508.672815,265.367505 507.224758,268.2441 C505.776701,271.120696 506.930843,274.628495 509.802606,276.078989 L509.808485,276.078989 Z" id="Shape" fill="#000000" fill-rule="nonzero" opacity="0.25"></path>
            <path d="M507.474606,303.11392 C510.061273,305.027741 520.995818,305.893377 520.995818,305.893377 C520.995818,305.893377 516.986485,295.676517 514.393939,293.739141 C512.72211,292.499989 510.517306,292.248377 508.610057,293.079085 C506.702808,293.909792 505.38287,295.696615 505.147451,297.766474 C504.912032,299.836333 505.796898,301.874768 507.468727,303.11392 L507.474606,303.11392 Z" id="Shape" fill="#000000" fill-rule="nonzero" opacity="0.25"></path>
            <path d="M99.2339394,319.578669 C99.2339394,319.578669 91.3916364,292.908837 100.703636,273.299532 C104.663115,265.091036 105.857496,255.817461 104.107455,246.871136 C103.243959,242.619572 101.992397,238.456451 100.368545,234.434244" id="Shape" stroke="#535461" stroke-width="2"></path>
            <path d="M106.16503,222.068015 C106.16503,225.336233 100.256848,234.817008 100.256848,234.817008 C100.256848,234.817008 94.3427879,225.306789 94.3427879,222.068015 C94.3427879,218.799526 96.987971,216.149892 100.25097,216.149892 C103.513968,216.149892 106.159152,218.799526 106.159152,222.068015 L106.16503,222.068015 Z" id="Shape" fill="#4990E2" fill-rule="nonzero"></path>
            <path d="M115.929697,240.146263 C114.166061,242.890388 104.054545,247.630776 104.054545,247.630776 C104.054545,247.630776 104.236788,236.442283 106.012182,233.715825 C107.138002,231.893541 109.159338,230.823269 111.296659,230.917759 C113.433981,231.012249 115.353325,232.256737 116.314497,234.171285 C117.275668,236.085834 117.128481,238.371288 115.929697,240.146263 Z" id="Shape" fill="#4990E2" fill-rule="nonzero"></path>
            <path d="M115.500545,271.085388 C112.561152,272.557558 101.479636,271.538817 101.479636,271.538817 C101.479636,271.538817 107.270242,261.987378 110.180242,260.515208 C113.094214,259.043575 116.647445,260.216796 118.116606,263.13567 C119.585767,266.054545 118.414517,269.613755 115.500545,271.085388 Z" id="Shape" fill="#4990E2" fill-rule="nonzero"></path>
            <path d="M109.933333,294.422228 C107.311394,296.365492 96.1887273,297.242905 96.1887273,297.242905 C96.1887273,297.242905 100.303879,286.849385 102.908182,284.876677 C104.605215,283.614384 106.845633,283.354856 108.785491,284.195856 C110.72535,285.036856 112.069939,286.850616 112.312764,288.95391 C112.555589,291.057203 111.65976,293.130491 109.962727,294.392784 L109.933333,294.422228 Z" id="Shape" fill="#4990E2" fill-rule="nonzero"></path>
            <path d="M91.6444242,248.260864 C93.9959394,250.539784 104.889333,252.895256 104.889333,252.895256 C104.889333,252.895256 102.220364,242.048307 99.8806061,239.769388 C98.3726875,238.262793 96.1719666,237.685752 94.1205165,238.259061 C92.0690664,238.83237 90.4844359,240.467286 89.9729602,242.538232 C89.4614846,244.609179 90.1023363,246.795588 91.650303,248.260864 L91.6444242,248.260864 Z" id="Shape" fill="#4990E2" fill-rule="nonzero"></path>
            <path d="M85.4599394,275.655004 C88.3993333,277.127174 99.4808485,276.108433 99.4808485,276.108433 C99.4808485,276.108433 93.6902424,266.556993 90.7802424,265.084823 C87.8662709,263.61319 84.3130399,264.786411 82.8438788,267.705286 C81.3747177,270.624161 82.5459679,274.183371 85.4599394,275.655004 L85.4599394,275.655004 Z" id="Shape" fill="#4990E2" fill-rule="nonzero"></path>
            <path d="M83.0907879,303.072699 C85.7127273,305.015963 96.8353939,305.893377 96.8353939,305.893377 C96.8353939,305.893377 92.7202424,295.499856 90.1159394,293.527148 C87.4925534,291.575811 83.786665,292.124193 81.8386061,294.751994 C79.8905471,297.379794 80.4380079,301.091918 83.0613939,303.043255 L83.0907879,303.072699 Z" id="Shape" fill="#4990E2" fill-rule="nonzero"></path>
            <path d="M106.16503,222.068015 C106.16503,225.336233 100.256848,234.817008 100.256848,234.817008 C100.256848,234.817008 94.3427879,225.306789 94.3427879,222.068015 C94.3427879,218.799526 96.987971,216.149892 100.25097,216.149892 C103.513968,216.149892 106.159152,218.799526 106.159152,222.068015 L106.16503,222.068015 Z" id="Shape" fill="#FFFFFF" fill-rule="nonzero" opacity="0.5"></path>
            <path d="M115.929697,240.146263 C114.166061,242.890388 104.054545,247.630776 104.054545,247.630776 C104.054545,247.630776 104.236788,236.442283 106.012182,233.715825 C107.138002,231.893541 109.159338,230.823269 111.296659,230.917759 C113.433981,231.012249 115.353325,232.256737 116.314497,234.171285 C117.275668,236.085834 117.128481,238.371288 115.929697,240.146263 Z" id="Shape" fill="#FFFFFF" fill-rule="nonzero" opacity="0.5"></path>
            <path d="M115.500545,271.085388 C112.561152,272.557558 101.479636,271.538817 101.479636,271.538817 C101.479636,271.538817 107.270242,261.987378 110.180242,260.515208 C113.094214,259.043575 116.647445,260.216796 118.116606,263.13567 C119.585767,266.054545 118.414517,269.613755 115.500545,271.085388 Z" id="Shape" fill="#FFFFFF" fill-rule="nonzero" opacity="0.5"></path>
            <path d="M109.933333,294.422228 C107.311394,296.365492 96.1887273,297.242905 96.1887273,297.242905 C96.1887273,297.242905 100.303879,286.849385 102.908182,284.876677 C104.605215,283.614384 106.845633,283.354856 108.785491,284.195856 C110.72535,285.036856 112.069939,286.850616 112.312764,288.95391 C112.555589,291.057203 111.65976,293.130491 109.962727,294.392784 L109.933333,294.422228 Z" id="Shape" fill="#FFFFFF" fill-rule="nonzero" opacity="0.5"></path>
            <path d="M91.6444242,248.260864 C93.9959394,250.539784 104.889333,252.895256 104.889333,252.895256 C104.889333,252.895256 102.220364,242.048307 99.8806061,239.769388 C98.3726875,238.262793 96.1719666,237.685752 94.1205165,238.259061 C92.0690664,238.83237 90.4844359,240.467286 89.9729602,242.538232 C89.4614846,244.609179 90.1023363,246.795588 91.650303,248.260864 L91.6444242,248.260864 Z" id="Shape" fill="#FFFFFF" fill-rule="nonzero" opacity="0.5"></path>
            <path d="M85.4599394,275.655004 C88.3993333,277.127174 99.4808485,276.108433 99.4808485,276.108433 C99.4808485,276.108433 93.6902424,266.556993 90.7802424,265.084823 C87.8662709,263.61319 84.3130399,264.786411 82.8438788,267.705286 C81.3747177,270.624161 82.5459679,274.183371 85.4599394,275.655004 L85.4599394,275.655004 Z" id="Shape" fill="#FFFFFF" fill-rule="nonzero" opacity="0.5"></path>
            <path d="M83.0907879,303.072699 C85.7127273,305.015963 96.8353939,305.893377 96.8353939,305.893377 C96.8353939,305.893377 92.7202424,295.499856 90.1159394,293.527148 C87.4925534,291.575811 83.786665,292.124193 81.8386061,294.751994 C79.8905471,297.379794 80.4380079,301.091918 83.0613939,303.043255 L83.0907879,303.072699 Z" id="Shape" fill="#FFFFFF" fill-rule="nonzero" opacity="0.5"></path>
            <path d="M54.4904848,318.919137 C54.4904848,318.919137 48.5176364,298.620857 55.6133333,283.634166 C58.6299779,277.378833 59.5396792,270.312135 58.2058788,263.49488 C57.547545,260.264014 56.5951209,257.100351 55.3605455,254.043548" id="Shape" stroke="#535461" stroke-width="2"></path>
            <path d="M59.7755152,244.586328 C59.7755152,247.07724 55.2723636,254.30265 55.2723636,254.30265 C55.2723636,254.30265 50.7692121,247.07724 50.7692121,244.586328 C50.7692123,242.095121 52.7853418,240.075599 55.2723636,240.075599 C57.7593854,240.075599 59.775515,242.095121 59.7755152,244.586328 L59.7755152,244.586328 Z" id="Shape" fill="#4990E2" fill-rule="nonzero"></path>
            <path d="M67.2180606,258.383505 C65.8659394,260.473987 58.1647273,264.089636 58.1647273,264.089636 C58.1647273,264.089636 58.3058182,255.574605 59.6579394,253.490012 C60.5327096,252.137254 62.0615061,251.354724 63.668446,251.437193 C65.2753859,251.519662 66.7163369,252.454601 67.4485066,253.889828 C68.1806763,255.325055 68.0928308,257.042525 67.2180606,258.395283 L67.2180606,258.383505 Z" id="Shape" fill="#4990E2" fill-rule="nonzero"></path>
            <path d="M66.8947273,281.961781 C64.6725455,283.08063 56.2070909,282.309213 56.2070909,282.309213 C56.2070909,282.309213 60.6161818,275.030804 62.8383636,273.906066 C65.0591508,272.784047 67.7675025,273.677805 68.8876364,275.902329 C70.0077703,278.126853 69.1155145,280.839762 66.8947273,281.961781 L66.8947273,281.961781 Z" id="Shape" fill="#4990E2" fill-rule="nonzero"></path>
            <path d="M62.6384848,299.751483 C60.639697,301.235431 52.1624848,301.900851 52.1624848,301.900851 C52.1624848,301.900851 55.2841212,293.980577 57.2829091,292.478963 C59.2829163,290.997574 62.1031287,291.420724 63.5820301,293.424097 C65.0609314,295.427469 64.6384918,298.252427 62.6384848,299.733817 L62.6384848,299.751483 Z" id="Shape" fill="#4990E2" fill-rule="nonzero"></path>
            <path d="M48.7116364,264.572508 C50.4752727,266.309669 58.8055152,268.105716 58.8055152,268.105716 C58.8055152,268.105716 56.7714545,259.861564 54.984303,258.09496 C53.8291443,256.972571 52.1639518,256.552747 50.6159875,256.993632 C49.0680231,257.434518 47.8724595,258.669131 47.479654,260.232406 C47.0868485,261.795681 47.5564775,263.450119 48.7116364,264.572508 L48.7116364,264.572508 Z" id="Shape" fill="#4990E2" fill-rule="nonzero"></path>
            <path d="M43.9968485,285.436102 C46.2190303,286.554951 54.6844848,285.783534 54.6844848,285.783534 C54.6844848,285.783534 50.2753939,278.505125 48.0532121,277.380387 C45.8324249,276.258369 43.1240733,277.152126 42.0039394,279.37665 C40.8838055,281.601174 41.7760613,284.314083 43.9968485,285.436102 L43.9968485,285.436102 Z" id="Shape" fill="#4990E2" fill-rule="nonzero"></path>
            <path d="M42.1920606,306.340916 C44.1908485,307.824864 52.6680606,308.490284 52.6680606,308.490284 C52.6680606,308.490284 49.5464242,300.57001 47.5476364,299.068396 C46.2538586,298.110105 44.547975,297.915991 43.0725756,298.559175 C41.5971762,299.202359 40.5764092,300.585127 40.3947876,302.186602 C40.2131661,303.788078 40.8982827,305.364959 42.1920606,306.32325 L42.1920606,306.340916 Z" id="Shape" fill="#4990E2" fill-rule="nonzero"></path>
            <path d="M59.7755152,244.586328 C59.7755152,247.07724 55.2723636,254.30265 55.2723636,254.30265 C55.2723636,254.30265 50.7692121,247.07724 50.7692121,244.586328 C50.7692123,242.095121 52.7853418,240.075599 55.2723636,240.075599 C57.7593854,240.075599 59.775515,242.095121 59.7755152,244.586328 L59.7755152,244.586328 Z" id="Shape" fill="#000000" fill-rule="nonzero" opacity="0.25"></path>
            <path d="M67.2180606,258.383505 C65.8659394,260.473987 58.1647273,264.089636 58.1647273,264.089636 C58.1647273,264.089636 58.3058182,255.574605 59.6579394,253.490012 C60.5327096,252.137254 62.0615061,251.354724 63.668446,251.437193 C65.2753859,251.519662 66.7163369,252.454601 67.4485066,253.889828 C68.1806763,255.325055 68.0928308,257.042525 67.2180606,258.395283 L67.2180606,258.383505 Z" id="Shape" fill="#000000" fill-rule="nonzero" opacity="0.25"></path>
            <path d="M66.8947273,281.961781 C64.6725455,283.08063 56.2070909,282.309213 56.2070909,282.309213 C56.2070909,282.309213 60.6161818,275.030804 62.8383636,273.906066 C65.0591508,272.784047 67.7675025,273.677805 68.8876364,275.902329 C70.0077703,278.126853 69.1155145,280.839762 66.8947273,281.961781 L66.8947273,281.961781 Z" id="Shape" fill="#000000" fill-rule="nonzero" opacity="0.25"></path>
            <path d="M62.6384848,299.751483 C60.639697,301.235431 52.1624848,301.900851 52.1624848,301.900851 C52.1624848,301.900851 55.2841212,293.980577 57.2829091,292.478963 C59.2829163,290.997574 62.1031287,291.420724 63.5820301,293.424097 C65.0609314,295.427469 64.6384918,298.252427 62.6384848,299.733817 L62.6384848,299.751483 Z" id="Shape" fill="#000000" fill-rule="nonzero" opacity="0.25"></path>
            <path d="M48.7116364,264.572508 C50.4752727,266.309669 58.8055152,268.105716 58.8055152,268.105716 C58.8055152,268.105716 56.7714545,259.861564 54.984303,258.09496 C53.8291443,256.972571 52.1639518,256.552747 50.6159875,256.993632 C49.0680231,257.434518 47.8724595,258.669131 47.479654,260.232406 C47.0868485,261.795681 47.5564775,263.450119 48.7116364,264.572508 L48.7116364,264.572508 Z" id="Shape" fill="#000000" fill-rule="nonzero" opacity="0.25"></path>
            <path d="M43.9968485,285.436102 C46.2190303,286.554951 54.6844848,285.783534 54.6844848,285.783534 C54.6844848,285.783534 50.2753939,278.505125 48.0532121,277.380387 C45.8324249,276.258369 43.1240733,277.152126 42.0039394,279.37665 C40.8838055,281.601174 41.7760613,284.314083 43.9968485,285.436102 L43.9968485,285.436102 Z" id="Shape" fill="#000000" fill-rule="nonzero" opacity="0.25"></path>
            <path d="M42.1920606,306.340916 C44.1908485,307.824864 52.6680606,308.490284 52.6680606,308.490284 C52.6680606,308.490284 49.5464242,300.57001 47.5476364,299.068396 C46.2538586,298.110105 44.547975,297.915991 43.0725756,298.559175 C41.5971762,299.202359 40.5764092,300.585127 40.3947876,302.186602 C40.2131661,303.788078 40.8982827,305.364959 42.1920606,306.32325 L42.1920606,306.340916 Z" id="Shape" fill="#000000" fill-rule="nonzero" opacity="0.25"></path>
            <g id="Group" opacity="0.7" transform="translate(0.000000, 47.109441)" fill-rule="nonzero">
                <rect id="Rectangle-path" fill="#4990E2" opacity="0.6" x="0" y="0" width="582" height="297.378345"></rect>
                <path d="M0,0 L0,297.967213 L582,297.967213 L582,0 L0,0 Z M25.8666667,25.9101924 L278.066667,25.9101924 L278.066667,136.02851 L25.8666667,136.02851 L25.8666667,25.9101924 Z M25.8666667,161.938703 L278.066667,161.938703 L278.066667,272.057021 L25.8666667,272.057021 L25.8666667,161.938703 Z M556.133333,272.057021 L303.933333,272.057021 L303.933333,161.938703 L556.133333,161.938703 L556.133333,272.057021 Z M556.133333,136.02851 L303.933333,136.02851 L303.933333,25.9101924 L556.133333,25.9101924 L556.133333,136.02851 Z" id="Shape" fill="#000000" opacity="0.25"></path>
            </g>
            <g id="Group" opacity="0.7" transform="translate(129.333333, 97.163222)" fill-rule="nonzero">
                <path d="M84.1313333,260.208996 C84.1313333,260.208996 33.1975152,241.553658 26.2252727,267.811282 L45.7604848,317.552963 L47.8533333,349.351836 L90.4098788,349.351836 L90.4098788,322.387569 C90.4098788,322.387569 84.1313333,295.440969 100.180424,278.864335 L84.1313333,260.208996 Z" id="Shape" fill="url(#linearGradient-1)"></path>
                <g opacity="0.1" transform="translate(47.618182, 111.296054)" id="Shape" fill="url(#linearGradient-2)">
                    <path d="M45.0432727,0.883302015 C42.8798788,0.164883043 40.2755758,-0.476983088 38.5119394,0.953966176 C37.4890303,1.78427007 37.0481212,3.12100045 36.2544848,4.16918551 C33.6149091,7.63761809 28.2946061,6.98986328 24.0912727,8.23237478 C17.9126667,10.0578656 14.0973333,16.1879816 11.9104242,22.1944353 C2.23393939,48.6934958 13.0215152,79.0025322 4.59721212,105.9138 C2.11636364,113.834075 -1.94,122.625874 2.06933333,129.910172 C3.40381818,132.342197 5.59660606,134.367903 6.24327273,137.053141 C7.14860606,140.698234 5.40260606,145.479842 8.45369697,147.699874 C9.40606061,148.38885 10.6112121,148.606731 11.751697,148.87761 C18.6181212,150.691324 23.8208485,156.044134 29.0529697,160.802188 C34.2850909,165.560241 40.5753939,170.165189 47.6710909,169.853089 C49.964283,169.663542 52.2284779,169.213102 54.4199394,168.51047 L89.6338788,158.688151 C93.1611515,157.704742 96.9941212,156.515228 99.0399394,153.500224 C100.292121,151.657067 100.686,149.378148 101.003455,147.187559 C102.218586,138.816997 102.794419,130.365772 102.725939,121.907455 C102.725939,119.116221 102.596606,116.260211 101.550182,113.663303 C100.374424,110.665965 98.0229091,108.269272 96.3121818,105.531036 C93.008303,100.231224 92.1206061,93.8655608 91.3034545,87.7001127 C90.0042424,77.883683 88.7050303,67.8729268 90.5039394,58.13305 C91.2740606,53.9520871 92.6026667,49.8888978 93.4844848,45.7373783 C94.913224,38.9737596 95.1400915,32.0107604 94.1546667,25.1682188 C93.3316364,19.4856425 91.568,13.7206246 87.688,9.44544288 C85.148594,6.59676394 81.6980651,4.7228473 77.9292121,4.14563079 C73.1673939,3.55676278 70.7982424,6.30088771 66.5537576,7.32551805 C60.2752121,8.89779563 51.0807879,2.87956457 45.0432727,0.883302015 Z"></path>
                </g>
                <path d="M92.6614545,110.771961 C90.4980606,110.053542 87.8937576,109.411676 86.1301212,110.842626 C85.1072121,111.672929 84.666303,113.00966 83.8726667,114.057845 C81.2330909,117.526277 75.9127879,116.878523 71.7094545,118.121034 C65.5308485,119.946525 61.7155152,126.076641 59.5286061,132.083095 C49.8521212,158.582155 60.639697,188.891192 52.2153939,215.80246 C49.7345455,223.722734 45.6781818,232.514534 49.6875152,239.798831 C51.022,242.230856 53.2147879,244.256562 53.8614545,246.9418 C54.7667879,250.586893 53.0207879,255.368501 56.0718788,257.588534 C57.0242424,258.277509 58.2293939,258.49539 59.3698788,258.76627 C66.236303,260.579983 71.4390303,265.932793 76.6711515,270.690847 C81.9032727,275.4489 88.1818182,280.106846 95.2892727,279.77708 C97.5824648,279.587533 99.8466597,279.137093 102.038121,278.434461 L137.252061,268.612143 C140.779333,267.628733 144.612303,266.43922 146.658121,263.424216 C147.910303,261.581059 148.304182,259.30214 148.621636,257.111551 C149.836768,248.740988 150.412601,240.289764 150.344121,231.831447 C150.344121,229.040213 150.214788,226.184203 149.168364,223.587295 C147.992606,220.589957 145.641091,218.193264 143.930364,215.455028 C140.626485,210.155215 139.738788,203.789552 138.921636,197.624104 C137.622424,187.807674 136.323212,177.796918 138.122121,168.057041 C138.892242,163.876079 140.220848,159.812889 141.102667,155.66137 C142.531406,148.897751 142.758273,141.934752 141.772848,135.09221 C140.949818,129.409634 139.186182,123.644616 135.306182,119.369434 C132.766776,116.520755 129.316247,114.646839 125.547394,114.069622 C120.785576,113.480754 118.416424,116.224879 114.171939,117.249509 C107.893394,118.780566 98.6989697,112.797667 92.6614545,110.771961 Z" id="Shape" fill="url(#linearGradient-3)"></path>
                <path d="M82.7380606,58.4745934 C82.7380606,58.4745934 83.4376364,84.7263293 75.0662424,84.0373537 C66.6948485,83.3483782 98.7636364,127.560588 98.7636364,127.560588 L125.970667,113.050881 C125.970667,113.050881 109.933333,87.4940089 121.10303,71.6004613 C132.272727,55.7069138 82.7380606,58.4745934 82.7380606,58.4745934 Z" id="Shape" fill="url(#linearGradient-4)"></path>
                <g opacity="0.1" transform="translate(4.115152, 100.107562)" id="Shape" fill="url(#linearGradient-5)">
                    <path d="M31.8747879,181.518564 C31.8747879,181.518564 26.2958182,219.518217 12.3395758,209.15414 C-1.61666667,198.790063 0.476181818,181.518564 0.476181818,181.518564 C0.476181818,181.518564 27.6890909,108.286938 26.2958182,97.2279971 C24.9025455,86.1690559 72.7382424,0.241435884 72.7382424,0.241435884 L90.4569091,141.446096 C90.4569091,141.446096 37.4537576,160.79041 31.8747879,181.518564 Z"></path>
                </g>
                <path d="M34.5966667,281.626126 C34.5966667,281.626126 29.017697,319.625779 15.0614545,309.261702 C1.10521212,298.897625 3.19806061,281.626126 3.19806061,281.626126 C3.19806061,281.626126 30.4109697,208.3945 29.0118182,197.335559 C27.6126667,186.276618 75.4542424,100.348998 75.4542424,100.348998 L93.1729091,241.553658 C93.1729091,241.553658 40.1756364,260.897972 34.5966667,281.626126 Z" id="Shape"></path>
                <path d="M84.1313333,75.0571166 C84.1313333,75.0571166 56.9184242,93.6947891 46.4424242,93.0175909 L38.3120606,95.2317346 C21.9123488,99.6373932 9.42942643,112.98359 6.10806061,129.662847 L5.97872727,130.322379 C1.80478788,152.434373 0.405636364,213.234995 0.405636364,213.234995 C0.405636364,213.234995 1.10521212,229.134431 8.07745455,233.256507 L52.7562424,263.653874 C52.7562424,263.653874 51.3629697,230.494717 68.1057576,227.038061 C84.8485455,223.581406 63.9200606,225.654221 63.9200606,225.654221 L33.2210303,207.693747 C33.2210303,207.693747 33.9206061,180.747147 42.292,171.772799 C50.6633939,162.79845 79.9691515,115.830338 79.9691515,115.830338 L71.5977576,86.8168107 L84.1313333,75.0571166 Z" id="Shape"></path>
                <g opacity="0.1" transform="translate(109.933333, 92.452278)" id="Shape" fill="url(#linearGradient-6)">
                    <path d="M4.19745455,0.56531329 C4.19745455,0.56531329 21.3341212,5.05837621 33.3327273,7.25485388 C37.1244771,7.9336602 40.3654152,10.3837671 42.0568485,13.8501756 C45.6781818,21.334688 51.1983636,34.8727636 50.246,46.1613633 L60.7102424,86.922807 L90.6920606,122.843756 L63.4909091,135.286537 L32.8036364,101.432515 L57.9178182,165.683903 L11.169697,167.756719 C11.169697,167.756719 -2.78654545,64.1159489 0.705454545,46.8562276 L4.19745455,0.56531329 Z"></path>
                </g>
                <path d="M115.524061,93.0175909 C115.524061,93.0175909 132.660727,97.5106538 144.659333,99.7071315 C148.451083,100.385938 151.692021,102.836045 153.383455,106.302453 C157.004788,113.786966 162.52497,127.325041 161.572606,138.613641 L172.036848,179.375085 L202.018667,215.296033 L174.811636,227.732926 L144.112606,193.878904 L169.250303,258.136181 L122.502182,260.208996 C122.502182,260.208996 108.545939,156.568227 112.037939,139.308505 L115.524061,93.0175909 Z" id="Shape"></path>
                <polygon id="Shape" fill="url(#linearGradient-7)" points="81.8386061 72.8547502 91.456303 119.616759 75.7599394 127.560588 67.1592727 85.4388596"></polygon>
                <polygon id="Shape" fill="url(#linearGradient-8)" points="108.199091 123.073414 115.524061 93.0175909 124.947758 110.636522 120.062485 125.14623"></polygon>
                <path d="M134.712424,132.053651 C134.712424,132.053651 134.712424,179.033541 140.99097,182.484308" id="Shape" fill="url(#linearGradient-9)" opacity="0.1"></path>
                <path d="M44.7081818,143.795679 C44.7081818,143.795679 30.2287273,190.063039 34.3262424,194.909423" id="Shape" fill="url(#linearGradient-10)" opacity="0.1"></path>
                <path d="M41.9216364,207.346315 C41.9216364,207.346315 69.8341212,225.418674 73.6670909,225.70722" id="Shape" fill="url(#linearGradient-11)" opacity="0.1"></path>
                <g opacity="0.1" transform="translate(82.890909, 60.653405)" id="Shape" fill="url(#linearGradient-12)">
                    <path d="M0.540848485,0.58297933 C0.540848485,0.58297933 0.646666667,4.62850256 0.270424242,9.498441 C5.35706787,21.3195587 16.9899462,28.9643091 29.8407273,28.9310853 C31.5635423,28.9297624 33.2835535,28.79193 34.9846667,28.5188777 C34.8024242,23.3486166 35.7959394,18.1606894 38.911697,13.732402 C50.0755152,-2.17881164 0.540848485,0.58297933 0.540848485,0.58297933 Z"></path>
                </g>
                <ellipse id="Oval" fill="url(#linearGradient-13)" cx="112.037939" cy="55.0238269" rx="32.092303" ry="31.7812065"></ellipse>
                <g opacity="0.1" transform="translate(65.254545, 0.588868)" id="Shape" fill="url(#linearGradient-14)">
                    <path d="M67.1475152,41.0735437 C71.0333939,41.5917476 75.965697,40.3080153 76.7358182,36.4921506 C77.682303,31.6752103 71.1744848,28.5424324 70.1692121,23.7313808 C69.7929697,21.9294447 70.2397576,20.0450671 70.0222424,18.2136876 C69.5872121,14.5273738 66.5772727,11.68903 63.5144242,9.54555044 C53.789431,2.80117977 42.0089044,-0.308343671 30.2287273,0.759639733 C28.7707879,0.895079375 27.2364242,1.13062658 26.1135758,2.05514936 C24.832,3.09744573 24.3499394,4.7933856 23.4622424,6.17722543 C20.452303,10.9941657 13.691697,11.559479 8.84169697,14.5627059 C3.16866667,18.095914 0.358606061,24.9680036 0.105818182,31.5868801 C-0.146969697,38.2057565 1.75775758,44.7009706 3.63309091,51.0607452 C5.238,56.4665535 6.91933333,62.0195788 10.4407273,66.4478663 C13.9621212,70.8761537 19.8056364,73.9677107 25.3375758,72.636869 C22.8038182,70.8290443 24.6438788,66.6304153 27.3892727,65.1582453 C30.1346667,63.6860753 33.5443636,63.432862 35.89,61.4012674 C38.2356364,59.3696728 38.9410909,56.0425685 39.7053333,53.015787 C40.6694545,49.1999222 42.0568485,45.3251707 44.8786667,42.5398251 C50.4106061,37.0869073 60.3751515,40.1725756 67.1475152,41.0735437 Z"></path>
                </g>
                <path d="M131.684848,40.9734361 C135.570727,41.49164 140.50303,40.2079077 141.273152,36.392043 C142.219636,31.5751027 135.711818,28.4423249 134.706545,23.6312732 C134.330303,21.8293371 134.777091,19.9449595 134.559576,18.11358 C134.124545,14.4272662 131.114606,11.5889224 128.051758,9.44544288 C118.333925,2.70437257 106.56262,-0.406997484 94.7895758,0.653643491 C93.3316364,0.789083134 91.7972727,1.02463034 90.6744242,1.94915311 C89.3928485,2.99144949 88.9107879,4.68738936 88.0230909,6.07122918 C85.0131515,10.8881695 78.2525455,11.4534828 73.4025455,14.4567096 C67.7295152,17.9899177 64.9194545,24.8620074 64.6666667,31.4808838 C64.4138788,38.0997603 66.3186061,44.5949744 68.1939394,50.9547489 C69.7988485,56.3605572 71.4801818,61.9135826 75.0015758,66.34187 C78.5229697,70.7701575 84.3664848,73.8617145 89.8984242,72.5308728 C87.3646667,70.723048 89.2047273,66.5244191 91.9501212,65.0522491 C94.6955152,63.5800791 98.1052121,63.3268658 100.450848,61.2952712 C102.796485,59.2636765 103.501939,55.9365723 104.266182,52.9097907 C105.230303,49.093926 106.617697,45.2191745 109.439515,42.4338288 C114.965576,36.9867997 124.930121,40.0665794 131.684848,40.9734361 Z" id="Shape"></path>
                <g opacity="0.1" transform="translate(95.824242, 56.531329)" id="Shape" fill="url(#linearGradient-15)">
                    <path d="M10.6641212,2.77945701 C10.1938182,6.0653405 9.14739394,11.7538055 7.178,15.3459003 C4.57363376,20.0205652 2.34632398,24.896204 0.517333333,29.9262723 L0.517333333,29.9262723 C0.517333333,29.9262723 13.3683636,39.7780341 19.9173333,46.5087954 C24.034565,50.8259792 30.2867517,52.3421893 35.9193939,50.3894356 C39.3232121,49.1645902 42.3037576,46.7973408 43.0973939,42.357276 C44.343697,35.3556353 42.8622424,30.0734893 41.4630909,26.9466001 C40.0988054,23.9581484 40.0816768,20.5266798 41.4160606,17.524712 C41.8981212,16.4647496 42.4624848,15.6344457 43.0915152,15.4283419 C43.0915152,15.4283419 30.5344242,12.6665509 29.8348485,16.1173174 C29.1352727,19.568084 19.3706061,23.0247392 17.2777576,16.806293 L16.6898788,3.09744573 C16.614274,1.48317392 15.2814941,0.21568169 13.6681818,0.223769844 L13.6681818,0.223769844 C12.1718205,0.209211985 10.8920227,1.29799259 10.6641212,2.77945701 Z"></path>
                </g>
                <path d="M106.488364,60.0056502 C106.018061,63.2915337 104.971636,68.9799987 103.002242,72.5720936 C100.397876,77.2467584 98.1705664,82.1223972 96.3415758,87.1524655 L96.3415758,87.1524655 C96.3415758,87.1524655 109.192606,97.0042273 115.741576,103.734989 C119.858807,108.052172 126.110994,109.568383 131.743636,107.615629 C135.147455,106.390783 138.128,104.023534 138.921636,99.5834692 C140.167939,92.5818285 138.686485,87.2996825 137.287333,84.1727934 C135.923048,81.1843416 135.905919,77.752873 137.240303,74.7509052 C137.722364,73.6909428 138.286727,72.8606389 138.915758,72.6545351 C138.915758,72.6545351 126.358667,69.8927441 125.659091,73.3435107 C124.959515,76.7942772 115.194848,80.2509324 113.102,74.0324862 L112.514121,60.323639 C112.438516,58.7093671 111.105737,57.4418749 109.492424,57.4499631 L109.492424,57.4499631 C107.996063,57.4354052 106.716265,58.5241858 106.488364,60.0056502 Z" id="Shape" fill="url(#linearGradient-16)"></path>
            </g>
            <path d="M214.146606,356.91879 C214.146606,356.91879 165.252727,338.80521 158.556788,364.297306 L177.310121,412.584483 L179.30303,443.482387 L220.160606,443.482387 L220.160606,417.307204 C220.160606,417.307204 214.134848,391.143798 229.566667,375.038258 L214.146606,356.91879 Z" id="Shape" fill="#535461" fill-rule="nonzero"></path>
            <path d="M222.335758,213.17022 C220.260545,212.475355 217.756182,211.851155 216.06897,213.240884 C215.087212,214.047633 214.663939,215.343143 213.899697,216.361884 C211.365939,219.730209 206.257273,219.100121 202.224424,220.3073 C196.292727,222.073904 192.636121,228.033248 190.531515,233.851264 C181.24303,259.578908 191.595576,289.022308 183.512242,315.150382 C181.160727,322.840998 177.239576,331.379584 181.084303,338.451889 C182.365879,340.807361 184.452848,342.780069 185.093636,345.388754 C185.963697,348.921962 184.288242,353.574019 187.215879,355.729276 C188.127091,356.400586 189.285212,356.60669 190.378667,356.907012 C196.968788,358.673616 201.965758,363.867432 206.986242,368.490046 C212.006727,373.11266 218.050121,377.582168 224.857758,377.281845 C227.055948,377.097492 229.225724,376.660831 231.324424,375.980447 L265.127455,366.440785 C268.519515,365.48093 272.182,364.326749 274.163152,361.400075 C275.338909,359.633471 275.744545,357.40755 276.050242,355.269959 C277.216313,347.1399 277.768526,338.933319 277.702182,330.720052 C277.702182,328.011259 277.578727,325.237691 276.585212,322.717336 C275.409455,319.808328 273.19903,317.482299 271.55297,314.814727 C268.384303,309.679798 267.526,303.484906 266.744121,297.496119 C265.497818,287.962346 264.251515,278.240135 265.974,268.782915 C266.714727,264.725614 267.990424,260.780198 268.83697,256.746452 C270.20962,250.176542 270.428451,243.41724 269.483636,236.77205 C268.695879,231.254356 266.996909,225.654221 263.281515,221.502702 C260.854756,218.742401 257.538999,216.921292 253.910727,216.355996 C249.33703,215.767128 247.061939,218.452366 242.987939,219.447553 C236.962182,220.925611 228.132242,215.113484 222.335758,213.17022 Z" id="Shape" fill="#000000" fill-rule="nonzero" opacity="0.1"></path>
            <path d="M222.335758,211.827601 C220.260545,211.132736 217.756182,210.508536 216.06897,211.898265 C215.087212,212.705014 214.663939,214.000524 213.899697,215.019265 C211.365939,218.38759 206.257273,217.757501 202.224424,218.964681 C196.292727,220.731285 192.636121,226.690629 190.531515,232.508645 C181.24303,258.236288 191.595576,287.679689 183.512242,313.807763 C181.160727,321.498379 177.239576,330.036965 181.084303,337.10927 C182.365879,339.464742 184.452848,341.43745 185.093636,344.046135 C185.963697,347.579343 184.288242,352.2314 187.215879,354.386657 C188.127091,355.057967 189.285212,355.26407 190.378667,355.564393 C196.968788,357.330997 201.965758,362.524813 206.986242,367.147427 C212.006727,371.770041 218.050121,376.239549 224.857758,375.939226 C227.055948,375.754873 229.225724,375.318212 231.324424,374.637828 L265.133333,365.104055 C268.525394,364.1442 272.187879,362.990019 274.16903,360.063345 C275.344788,358.296741 275.750424,356.07082 276.056121,353.933229 C277.222192,345.803169 277.774404,337.596588 277.708061,329.383321 C277.708061,326.674529 277.584606,323.90096 276.591091,321.380605 C275.415333,318.471597 273.204909,316.145569 271.558848,313.477997 C268.390182,308.343067 267.531879,302.148176 266.75,296.159388 C265.503697,286.625615 264.257394,276.903404 265.979879,267.446184 C266.720606,263.388884 267.996303,259.443468 268.842848,255.409722 C270.215498,248.839812 270.434329,242.080509 269.489515,235.435319 C268.701758,229.917626 267.002788,224.317491 263.287394,220.165972 C260.867845,217.402714 257.558594,215.575501 253.934242,215.001599 C249.360545,214.412731 247.085455,217.097969 243.011455,218.093156 C236.962182,219.588881 228.132242,213.770865 222.335758,211.827601 Z" id="Shape" fill="#E0E0E0" fill-rule="nonzero"></path>
            <path d="M212.812121,161.020069 C212.812121,161.020069 213.482303,186.512165 205.446,185.840855 C197.409697,185.169546 228.220424,228.109801 228.220424,228.109801 L254.339879,214.01819 C254.339879,214.01819 238.937455,189.197403 249.636848,173.763172 C260.336242,158.328942 212.812121,161.020069 212.812121,161.020069 Z" id="Shape" fill="#FDA57D" fill-rule="nonzero"></path>
            <path d="M167.933455,377.723496 C167.933455,377.723496 162.577879,414.621966 149.180121,404.558212 C135.782364,394.494457 137.792909,377.723496 137.792909,377.723496 C137.792909,377.723496 163.912364,306.605907 162.572,295.870843 C161.231636,285.135779 207.180242,201.681405 207.180242,201.681405 L224.187576,338.80521 C224.187576,338.80521 173.28903,357.595988 167.933455,377.723496 Z" id="Shape" fill="#000000" fill-rule="nonzero" opacity="0.1"></path>
            <path d="M166.593091,377.723496 C166.593091,377.723496 161.237515,414.621966 147.839758,404.558212 C134.442,394.494457 136.452545,377.723496 136.452545,377.723496 C136.452545,377.723496 162.572,306.605907 161.231636,295.870843 C159.891273,285.135779 205.839879,201.681405 205.839879,201.681405 L222.847212,338.80521 C222.847212,338.80521 171.948667,357.595988 166.593091,377.723496 Z" id="Shape" fill="#4D8AF0" fill-rule="nonzero"></path>
            <path d="M214.146606,177.11972 C214.146606,177.11972 188.027152,195.2333 177.980303,194.561991 L170.173273,196.711359 C154.360959,201.064542 142.380085,214.021733 139.256727,230.147284 L139.133273,230.789151 C135.112182,252.259278 133.777697,311.299185 133.777697,311.299185 C133.777697,311.299185 134.447879,326.727527 141.143818,330.731829 L184.006061,360.281226 C184.006061,360.281226 182.665697,328.076034 198.744182,324.725375 C214.822667,321.374717 194.723091,323.382756 194.723091,323.382756 L165.252727,305.934597 C165.252727,305.934597 165.922909,279.771192 173.959212,271.050056 C181.995515,262.328921 210.125515,216.709316 210.125515,216.709316 L202.089212,188.502539 L214.146606,177.11972 Z" id="Shape" fill="#4D8AF0" fill-rule="nonzero"></path>
            <path d="M242.946788,194.567879 C242.946788,194.567879 259.407394,198.931391 270.918061,201.045427 C274.57128,201.716127 277.683303,204.097853 279.289455,207.452311 C282.763818,214.724831 288.060606,227.862477 287.149394,238.827199 L297.196242,278.410906 L326.002303,313.295447 L299.87697,325.390796 L270.424242,292.520184 L294.527273,354.940193 L249.648606,356.91879 C249.648606,356.91879 236.250848,256.281247 239.601758,239.510286 L242.946788,194.567879 Z" id="Shape" fill="#000000" fill-rule="nonzero" opacity="0.1"></path>
            <path d="M244.287152,194.567879 C244.287152,194.567879 260.747758,198.931391 272.258424,201.045427 C275.911643,201.716127 279.023667,204.097853 280.629818,207.452311 C284.104182,214.724831 289.40097,227.862477 288.489758,238.827199 L298.536606,278.410906 L327.342667,313.295447 L301.223212,325.37313 L271.752848,292.496629 L295.855879,354.916638 L250.983091,356.91879 C250.983091,356.91879 237.585333,256.281247 240.936242,239.510286 L244.287152,194.567879 Z" id="Shape" fill="#4D8AF0" fill-rule="nonzero"></path>
            <polygon id="Shape" fill="#E0E0E0" fill-rule="nonzero" points="211.947939 174.988018 221.183515 220.39563 206.110303 228.109801 197.856485 187.207029"></polygon>
            <polygon id="Shape" fill="#E0E0E0" fill-rule="nonzero" points="237.256121 223.752178 244.287152 194.567879 253.328727 211.674495 248.643333 225.766106"></polygon>
            <path d="M262.705394,232.473313 C262.705394,232.473313 262.705394,278.092918 268.731152,281.449465" id="Shape" fill="#000000" fill-rule="nonzero" opacity="0.1"></path>
            <path d="M176.304848,243.856132 C176.304848,243.856132 162.401515,288.786761 166.310909,293.491816" id="Shape" fill="#000000" fill-rule="nonzero" opacity="0.1"></path>
            <path d="M173.624121,305.598943 C173.624121,305.598943 200.419636,323.147209 204.099758,323.429866" id="Shape" fill="#000000" fill-rule="nonzero" opacity="0.1"></path>
            <path d="M213.476424,163.705307 C213.476424,163.705307 213.582242,167.633056 213.217758,172.361667 C218.751194,185.47292 232.517764,193.093883 246.544606,190.810901 C246.368242,185.787857 247.326485,180.753036 250.312909,176.448411 C261.018182,161.020069 213.476424,163.705307 213.476424,163.705307 Z" id="Shape" fill="#000000" fill-rule="nonzero" opacity="0.1"></path>
            <ellipse id="Oval" fill="#FDA57D" fill-rule="nonzero" cx="240.936242" cy="157.66941" rx="30.8107273" ry="30.8625724"></ellipse>
            <path d="M260.483212,144.696647 C264.216242,145.197185 268.972182,143.948785 269.689394,140.250694 C270.600606,135.569193 264.351455,132.530634 263.387333,127.884466 C263.022848,126.117862 263.457879,124.304148 263.246242,122.531656 C262.828848,118.951338 259.936485,116.195436 256.997091,114.116732 C247.689232,107.577443 236.367975,104.556143 225.045879,105.589923 C223.646727,105.725363 222.171152,105.949132 221.089455,106.844212 C219.860788,107.857065 219.384606,109.500006 218.543939,110.860292 C215.651576,115.535904 209.137879,116.08944 204.511273,119.004336 C199.061636,122.413882 196.369152,129.109311 196.122242,135.53975 C195.875333,141.970189 197.709515,148.276965 199.520182,154.448302 C201.060424,159.701004 202.677091,165.089147 206.057394,169.387883 C209.437697,173.68662 215.051939,176.689846 220.354606,175.394337 C217.920788,173.627733 219.690303,169.558655 222.324,168.133594 C224.957697,166.708534 228.202788,166.461209 230.489636,164.482613 C232.776485,162.504016 233.42903,159.277019 234.152121,156.338568 C235.08097,152.6287 236.421333,148.871722 239.119697,146.162929 C244.422364,140.80423 253.963636,143.819234 260.483212,144.696647 Z" id="Shape" fill="#000000" fill-rule="nonzero" opacity="0.1"></path>
            <path d="M259.842424,144.025338 C263.575455,144.525876 268.331394,143.277476 269.048606,139.579384 C269.959818,134.897884 263.710667,131.859325 262.746545,127.213156 C262.382061,125.446552 262.817091,123.632839 262.605455,121.860346 C262.158667,118.250585 259.254545,115.482905 256.315152,113.415979 C247.012843,106.878682 235.698505,103.855475 224.381576,104.883281 C222.982424,105.018721 221.506848,105.242491 220.425152,106.13757 C219.196485,107.150423 218.720303,108.793365 217.879636,110.15365 C214.987273,114.829262 208.473576,115.382798 203.84697,118.297695 C198.397333,121.70724 195.704848,128.40267 195.457939,134.833108 C195.21103,141.263547 197.045212,147.570323 198.855879,153.74166 C200.396121,158.994363 202.012788,164.382505 205.393091,168.681241 C208.773394,172.979978 214.387636,175.983205 219.690303,174.687695 C217.256485,172.921091 219.026,168.852013 221.659697,167.426953 C224.293394,166.001892 227.538485,165.754567 229.825333,163.775971 C232.112182,161.797374 232.764727,158.570378 233.487818,155.631926 C234.416667,151.922058 235.75703,148.16508 238.455394,145.456287 C243.752182,140.150586 253.31697,143.159702 259.842424,144.025338 Z" id="Shape" fill="#72351C" fill-rule="nonzero"></path>
            <path d="M235.610061,161.832707 C235.157394,165.024371 234.152121,170.547953 232.259152,174.034052 C229.758067,178.568513 227.619343,183.294225 225.86303,188.166884 L225.86303,188.166884 C225.86303,188.166884 238.208485,197.735989 244.469394,204.272424 C248.39617,208.459403 254.416665,209.93648 259.830667,208.041179 C263.099273,206.863443 265.962242,204.549192 266.720606,200.244567 C267.896364,193.443141 266.497212,188.314101 265.156848,185.275542 C263.857304,182.369927 263.848759,179.048596 265.133333,176.136311 C265.597758,175.105791 266.138606,174.304931 266.744121,174.098827 C266.744121,174.098827 254.686727,171.413589 254.016545,174.770137 C253.346364,178.126684 243.969697,181.477343 241.959152,175.441446 L241.406545,162.127141 C241.343425,160.566711 240.06151,159.334626 238.502424,159.335906 L238.502424,159.335906 C237.049893,159.324542 235.813318,160.392002 235.610061,161.832707 Z" id="Shape" fill="#000000" fill-rule="nonzero" opacity="0.1"></path>
            <path d="M235.610061,162.504016 C235.157394,165.695681 234.152121,171.219263 232.259152,174.705361 C229.758067,179.239822 227.619343,183.965534 225.86303,188.838193 L225.86303,188.838193 C225.86303,188.838193 238.208485,198.407299 244.469394,204.943734 C248.39617,209.130713 254.416665,210.607789 259.830667,208.712489 C263.099273,207.534753 265.962242,205.220502 266.720606,200.915876 C267.896364,194.114451 266.497212,188.98541 265.156848,185.946852 C263.844699,183.037039 263.829737,179.705586 265.115697,176.784065 C265.580121,175.753546 266.12097,174.952686 266.726485,174.746582 C266.726485,174.746582 254.669091,172.061344 253.998909,175.417892 C253.328727,178.774439 243.969697,182.154542 241.941515,176.136311 L241.388909,162.822005 C241.325789,161.261576 240.043873,160.02949 238.484788,160.03077 L238.484788,160.03077 C237.046673,160.026579 235.823001,161.079354 235.610061,162.504016 L235.610061,162.504016 Z" id="Shape" fill="#72351C" fill-rule="nonzero"></path>
            <path d="M475.006061,353.385582 C475.006061,353.385582 462.901636,341.249012 458.451394,325.119917 L459.491939,325.119917 L458.992242,323.718411 L459.491939,323.718411 L457.916424,319.231237 C462.378424,314.838282 465.676424,310.580766 466.211394,308.160518 C467.116727,304.085552 468.016182,282.038333 468.562909,266.715988 L469.04497,266.833761 C470.220727,264.819833 470.467636,262.281812 470.385333,259.979338 C470.429807,257.393029 470.097086,254.814071 469.397697,252.324054 L467.216667,230.447607 C466.792468,226.380328 464.720428,222.665667 461.484848,220.17186 L439.380606,202.99458 C440.543938,201.422833 442.021538,200.111211 443.719152,199.143384 C444.983091,198.472074 446.452788,198.012757 447.305212,196.864464 C448.845455,194.78576 447.534485,191.688315 448.586788,189.321065 C449.374545,187.554461 451.314545,186.565163 452.449152,184.981108 C454.771273,181.736445 453.089939,177.25516 451.355697,173.663065 L441.279455,152.799471 C438.48703,147.022676 435.671091,141.198771 431.767576,136.110952 C419.816,120.517727 396.818182,112.762335 378.070727,119.52254 C372.726909,121.448138 367.806364,125.14623 365.525394,130.351823 C364.731758,132.165536 364.255576,134.144133 363.103333,135.751742 C360.534303,139.337949 355.519697,140.015147 351.933636,142.594389 C347.354061,145.909716 345.655091,152.151716 346.295879,157.775406 C346.936667,163.399095 349.511576,168.592911 352.051212,173.674842 C354.720182,178.974654 357.477333,184.433461 361.85703,188.449541 C363.902848,190.32803 366.407212,192.071079 367.059758,194.773983 C367.618242,197.094123 366.630606,199.484927 366.836364,201.887509 C366.922197,202.886863 367.214481,203.857433 367.694667,204.73763 C357.800667,205.980141 350.781394,214.212516 347.636242,226.460971 C347.442242,227.22061 347.365818,227.638707 347.365818,227.638707 L345.972545,240.322924 C345.943152,240.870571 345.972545,241.400552 345.972545,241.924645 C345.846034,244.778626 346.453307,247.617335 347.736182,250.168797 L347.736182,294.704884 L305.408909,321.545488 C299.059818,324.372055 300.470727,346.978698 313.168909,351.212659 C325.867091,355.44662 337.160242,328.653125 337.160242,328.653125 C344.890848,328.134921 357.894727,317.806176 364.884606,309.809349 C365.829304,311.336765 367.085376,312.647124 368.570606,313.654657 C363.526606,325.043364 353.550303,348.603973 355.143455,353.385582 C356.101697,356.271035 380.874909,356.536025 407.652788,355.970712 C408.33755,356.351885 409.055821,356.669244 409.798545,356.91879 C412.655636,357.872756 415.442182,357.248556 418.028848,355.71161 C446.999515,354.881306 475.006061,353.385582 475.006061,353.385582 Z M439.257152,267.028088 C439.84503,265.396923 441.773273,264.507733 444.354061,264.083748 L444.354061,281.261028 L439.257152,267.028088 Z M436.793939,206.669117 L436.793939,206.669117 L436.876242,206.545455 L436.793939,206.669117 Z" id="Shape" fill-rule="nonzero"></path>
            <path d="M373.220727,245.55796 C373.220727,245.55796 371.880364,293.191494 370.54,299.233279 C369.199636,305.275065 349.787879,323.353313 339.729273,324.054066 C339.729273,324.054066 329.012242,349.546162 316.954848,345.524194 C304.897455,341.502225 303.557091,320.032097 309.588727,317.346859 L349.787879,291.848874 L349.787879,240.858793 L373.220727,245.55796 Z" id="Shape" fill="#FDB797" fill-rule="nonzero"></path>
            <path d="M372.215455,303.920669 C372.215455,303.920669 354.802485,341.490448 356.81303,347.532234 C358.823576,353.574019 470.673394,347.532234 470.673394,347.532234 C470.673394,347.532234 449.909515,326.733415 453.930606,303.920669 L372.215455,303.920669 Z" id="Shape" fill="#3AD29F" fill-rule="nonzero"></path>
            <path d="M385.613212,192.553951 C385.613212,192.553951 388.293939,218.717356 383.602667,224.759142 C378.911394,230.800928 402.356,234.18103 404.366545,234.18103 C406.377091,234.18103 427.811152,226.802514 431.826364,224.759142 C435.841576,222.71577 439.192485,207.988181 439.192485,207.988181 C439.192485,207.988181 419.098788,212.016038 413.07303,188.555537 L385.613212,192.553951 Z" id="Shape" fill="#FDB797" fill-rule="nonzero"></path>
            <path d="M378.593939,125.434775 C373.520545,127.266154 368.84103,130.775808 366.677636,135.722299 C365.925152,137.441794 365.472485,139.320283 364.37903,140.851339 C361.939333,144.254996 357.177515,144.896863 353.797212,147.328887 C349.446909,150.479331 347.836121,156.403343 348.441636,161.750265 C349.047152,167.097187 351.492727,172.026012 353.90303,176.831175 C356.436788,181.877774 359.058727,187.048035 363.21503,190.863899 C365.15503,192.630503 367.535939,194.302889 368.153212,196.870353 C368.682303,199.072719 367.747576,201.375193 367.941576,203.630558 C368.423636,209.207138 375.078424,211.804046 380.633879,212.422357 C383.050061,212.693237 385.813091,212.705014 387.517939,210.967853 C388.388,210.072774 388.828909,208.859706 389.375636,207.740857 C391.953355,202.515371 397.244461,199.184773 403.062976,199.125072 C408.881491,199.065371 414.239597,202.286703 416.923636,207.4582 C418.228727,209.966778 418.987091,213.017114 421.356242,214.524616 C424.983455,216.880088 429.839333,214.118297 432.525939,210.71464 C435.212545,207.310983 437.140788,203.059356 440.956121,201.015984 C442.131879,200.374118 443.554545,199.944244 444.365818,198.84895 C445.829636,196.876242 444.583333,193.931902 445.582727,191.688315 C446.335212,189.998263 448.175273,189.073741 449.251091,187.566239 C451.455636,184.486459 449.83897,180.228943 448.210545,176.819397 L438.639879,157.003989 C435.988545,151.515739 433.313697,145.986268 429.610061,141.151662 C418.234606,126.382852 396.394909,119.016114 378.593939,125.434775 Z" id="Shape" fill="#4990E2" fill-rule="nonzero"></path>
            <path d="M403.026182,229.45242 C403.026182,229.45242 429.145636,229.45242 435.847455,205.308832 L457.834121,222.386004 C460.902175,224.768528 462.857782,228.309448 463.242606,232.178879 L465.317818,252.954142 C465.317818,252.954142 467.669333,260.668313 464.982727,265.36748 C464.982727,265.36748 437.187818,258.301064 436.517636,266.374444 L455.917636,320.715184 C455.917636,320.715184 425.777091,321.386494 417.740788,316.00424 C417.740788,316.00424 384.919515,322.711447 376.883212,315.332931 C368.846909,307.954415 360.810606,308.625724 367.477152,291.848874 C367.477152,291.848874 354.079394,278.428573 360.11103,259.643683 C366.142667,240.858793 360.446121,259.979338 360.446121,259.979338 C360.446121,259.979338 347.436364,253.607786 348.106545,241.50066 L349.446909,229.422977 C349.446909,229.422977 349.517455,229.022546 349.705576,228.304128 C353.791333,212.404691 364.761152,203.571671 380.187091,209.201249 C384.696121,210.838302 389.305091,208.959813 389.305091,208.959813 C389.305091,208.959813 384.272848,230.795039 403.026182,229.45242 Z" id="Shape" fill="#000000" fill-rule="nonzero" opacity="0.1"></path>
            <path d="M403.026182,228.109801 C403.026182,228.109801 429.145636,228.109801 435.847455,203.966213 L457.834121,221.043385 C460.902175,223.425909 462.857782,226.966829 463.242606,230.83626 L465.317818,251.611523 C465.317818,251.611523 467.669333,259.325694 464.982727,264.024861 C464.982727,264.024861 437.187818,256.958445 436.517636,265.031825 L455.917636,319.372565 C455.917636,319.372565 425.777091,320.043875 417.740788,314.661621 C417.740788,314.661621 384.919515,321.368828 376.883212,313.990312 C368.846909,306.611796 360.810606,307.283105 367.477152,290.506255 C367.477152,290.506255 354.079394,277.085953 360.11103,258.301064 C366.142667,239.516174 360.446121,258.636719 360.446121,258.636719 C360.446121,258.636719 347.436364,252.265167 348.106545,240.187484 L349.446909,228.109801 C349.446909,228.109801 349.517455,227.709371 349.705576,226.990952 C353.791333,211.091516 364.761152,202.258495 380.187091,207.888074 C384.696121,209.525127 389.305091,207.646638 389.305091,207.646638 C389.305091,207.646638 384.272848,229.45242 403.026182,228.109801 Z" id="Shape" fill="#252A62" fill-rule="nonzero"></path>
            <path d="M464.982727,250.922548 C464.982727,250.922548 463.642364,298.556081 462.302,304.597867 C460.961636,310.639653 441.538121,328.741455 431.491273,329.418654 C431.491273,329.418654 420.774242,354.91075 408.716848,350.888781 C396.659455,346.866813 395.319091,325.396685 401.350727,322.711447 L441.538121,297.219351 L441.538121,246.211604 L464.982727,250.922548 Z" id="Shape" fill="#FDB797" fill-rule="nonzero"></path>
            <path d="M436.206061,252.600822 C436.206061,252.600822 451.608485,263.070895 465.012121,262.19937 C465.012121,262.19937 466.352485,244.215341 462.331394,243.208377 C458.310303,242.201413 440.867939,243.208377 436.206061,252.600822 Z" id="Shape" fill="#000000" fill-rule="nonzero" opacity="0.1"></path>
            <path d="M436.206061,251.929512 C436.206061,251.929512 451.608485,262.399585 465.012121,261.528061 C465.012121,261.528061 466.352485,243.544032 462.331394,242.537067 C458.310303,241.530103 440.867939,242.537067 436.206061,251.929512 Z" id="Shape" fill="#252A62" fill-rule="nonzero"></path>
            <path d="M414.413394,189.868712 L386.953576,193.89657 C386.953576,193.89657 387.570848,199.950133 387.694303,206.904664 C398.588058,211.506746 411.149847,209.461448 420.027636,201.640184 C417.711394,198.807729 415.730242,194.980087 414.413394,189.868712 Z" id="Shape" fill="#000000" fill-rule="nonzero" opacity="0.1"></path>
            <ellipse id="Oval" fill="#FDB797" fill-rule="nonzero" cx="398.340788" cy="177.125609" rx="30.8107273" ry="30.8625724"></ellipse>
            <path d="M406.459394,171.189819 C405.146885,171.684065 403.742407,171.885043 402.344242,171.778687 C396.896566,171.743355 391.450848,171.547066 386.007091,171.189819 C381.891939,170.913051 377.482848,170.424291 374.302424,167.780273 C370.022667,164.247065 369.346606,157.551636 371.55703,152.440262 C373.767455,147.328887 378.276485,143.560132 383.038303,140.662902 C385.727714,138.963619 388.64019,137.647628 391.691879,136.752818 C400.510061,134.350237 410.292364,137.300465 417.305758,143.189145 C424.319152,149.077825 428.792909,157.58108 431.162061,166.437654 C431.979212,169.499768 433.031515,173.15075 436.059091,174.092939 C434.042667,177.449486 429.122121,177.985356 425.594848,176.301194 C420.386242,173.822059 417.717273,164.329507 413.043636,162.833782 C407.829152,161.155508 410.862606,169.164113 406.459394,171.189819 Z" id="Shape" fill="#000000" fill-rule="nonzero" opacity="0.1"></path>
            <path d="M406.459394,170.51851 C405.146885,171.012756 403.742407,171.213733 402.344242,171.107378 C396.896566,171.072046 391.450848,170.875756 386.007091,170.51851 C381.891939,170.241742 377.482848,169.752981 374.302424,167.108964 C370.022667,163.575756 369.346606,156.880327 371.55703,151.768952 C373.767455,146.657578 378.276485,142.888823 383.038303,139.991592 C385.726536,138.296911 388.636973,136.984912 391.686,136.093286 C400.504182,133.690704 410.286485,136.640933 417.299879,142.529613 C424.313273,148.418293 428.78703,156.921547 431.156182,165.778122 C431.973333,168.840236 433.025636,172.491218 436.053212,173.433406 C434.036788,176.789954 429.116242,177.325824 425.58897,175.641661 C420.380364,173.162527 417.711394,163.669975 413.037758,162.17425 C407.829152,160.484199 410.862606,168.481026 406.459394,170.51851 Z" id="Shape" fill="#4990E2" fill-rule="nonzero"></path>
            <path d="M367.19497,290.170601 C377.240745,287.481958 387.595771,286.127738 397.993939,286.142743" id="Shape" fill="#000000" fill-rule="nonzero" opacity="0.1"></path>
            <path d="M436.206061,253.943441 C436.206061,253.943441 426.159212,261.321957 428.839939,265.349814" id="Shape" fill="#000000" fill-rule="nonzero" opacity="0.1"></path>
            <g id="Group" opacity="0.7" transform="translate(175.775758, 326.821746)" fill-rule="nonzero" fill="url(#linearGradient-17)">
                <polygon id="Shape" points="329.394364 0.247324564 0.529090909 0.247324564 0.529090909 29.0547476 19.6704242 29.0547476 19.6704242 34.6725484 19.6704242 119.669757 310.93497 119.669757 310.93497 34.6725484 310.93497 29.0547476 329.394364 29.0547476"></polygon>
            </g>
            <rect id="Rectangle-path" fill="#E0E0E0" fill-rule="nonzero" x="198.409091" y="343.84592" width="285.32697" height="102.651472"></rect>
            <rect id="Rectangle-path" fill="#000000" fill-rule="nonzero" opacity="0.1" x="198.409091" y="349.210507" width="285.32697" height="16.0996514"></rect>
            <rect id="Rectangle-path" fill="#E0E0E0" fill-rule="nonzero" x="179.655758" y="332.439546" width="322.163455" height="27.5060248"></rect>
            <rect id="Rectangle-path" fill="#535461" fill-rule="nonzero" x="225.827758" y="325.667564" width="61.6214545" height="8.72113523" rx="4.36056761"></rect>
            <g id="Group" opacity="0.7" transform="translate(262.781818, 227.891920)" fill-rule="nonzero" fill="url(#linearGradient-18)">
                <rect id="Rectangle-path" x="0.552606061" y="0.535869889" width="153.154182" height="106.072795" rx="28.22"></rect>
            </g>
            <rect id="Rectangle-path" fill="#3E3F49" fill-rule="nonzero" x="266.062182" y="230.382832" width="145.082606" height="104.111864" rx="26.84"></rect>
            <rect id="Rectangle-path" fill="#535461" fill-rule="nonzero" x="268.072727" y="230.382832" width="145.082606" height="104.111864" rx="26.84"></rect>
            <ellipse id="Oval" fill="#E0E0E0" fill-rule="nonzero" cx="347.389333" cy="281.726233" rx="4.69127273" ry="4.69916672"></ellipse>
            <path d="M155.54097,345.85396 C155.54097,345.85396 159.503273,351.677864 171.25497,353.462134" id="Shape" fill="#000000" fill-rule="nonzero" opacity="0.1"></path>
            <path d="M260.430303,47.1094408 L218.690909,47.1094408 L218.690909,23.5547204 L260.430303,23.5547204 L260.430303,47.1094408 Z M220.454545,45.3428368 L258.666667,45.3428368 L258.666667,25.3213244 L220.454545,25.3213244 L220.454545,45.3428368 Z" id="Shape" fill="#4990E2" fill-rule="nonzero" opacity="0.2"></path>
            <path d="M302.169697,47.1094408 L260.430303,47.1094408 L260.430303,23.5547204 L302.169697,23.5547204 L302.169697,47.1094408 Z M262.193939,45.3428368 L300.406061,45.3428368 L300.406061,25.3213244 L262.193939,25.3213244 L262.193939,45.3428368 Z" id="Shape" fill="#4990E2" fill-rule="nonzero" opacity="0.2"></path>
            <path d="M343.909091,47.1094408 L302.169697,47.1094408 L302.169697,23.5547204 L343.909091,23.5547204 L343.909091,47.1094408 Z M303.933333,45.3428368 L342.145455,45.3428368 L342.145455,25.3213244 L303.933333,25.3213244 L303.933333,45.3428368 Z" id="Shape" fill="#4990E2" fill-rule="nonzero" opacity="0.2"></path>
            <path d="M385.648485,47.1094408 L343.909091,47.1094408 L343.909091,23.5547204 L385.648485,23.5547204 L385.648485,47.1094408 Z M345.672727,45.3428368 L383.884848,45.3428368 L383.884848,25.3213244 L345.672727,25.3213244 L345.672727,45.3428368 Z" id="Shape" fill="#4990E2" fill-rule="nonzero" opacity="0.2"></path>
            <path d="M343.909091,23.5547204 L302.169697,23.5547204 L302.169697,0 L343.909091,0 L343.909091,23.5547204 Z M303.933333,21.7881164 L342.145455,21.7881164 L342.145455,1.76660403 L303.933333,1.76660403 L303.933333,21.7881164 Z" id="Shape" fill="#4990E2" fill-rule="nonzero" opacity="0.2"></path>
            <path d="M302.169697,23.5547204 L260.430303,23.5547204 L260.430303,0 L302.169697,0 L302.169697,23.5547204 Z M262.193939,21.7881164 L300.406061,21.7881164 L300.406061,1.76660403 L262.193939,1.76660403 L262.193939,21.7881164 Z" id="Shape" fill="#4990E2" fill-rule="nonzero" opacity="0.2"></path>
            <path d="M105.818182,47.1094408 L64.0787879,47.1094408 L64.0787879,23.5547204 L105.818182,23.5547204 L105.818182,47.1094408 Z M65.8424242,45.3428368 L104.054545,45.3428368 L104.054545,25.3213244 L65.8424242,25.3213244 L65.8424242,45.3428368 Z" id="Shape" fill="#4990E2" fill-rule="nonzero" opacity="0.2"></path>
            <path d="M147.557576,47.1094408 L105.818182,47.1094408 L105.818182,23.5547204 L147.557576,23.5547204 L147.557576,47.1094408 Z M107.581818,45.3428368 L145.793939,45.3428368 L145.793939,25.3213244 L107.581818,25.3213244 L107.581818,45.3428368 Z" id="Shape" fill="#4990E2" fill-rule="nonzero" opacity="0.2"></path>
            <path d="M147.557576,23.5547204 L105.818182,23.5547204 L105.818182,0 L147.557576,0 L147.557576,23.5547204 Z M107.581818,21.7881164 L145.793939,21.7881164 L145.793939,1.76660403 L107.581818,1.76660403 L107.581818,21.7881164 Z" id="Shape" fill="#4990E2" fill-rule="nonzero" opacity="0.2"></path>
            <path d="M470.30303,47.1094408 L428.563636,47.1094408 L428.563636,23.5547204 L470.30303,23.5547204 L470.30303,47.1094408 Z M430.327273,45.3428368 L468.539394,45.3428368 L468.539394,25.3213244 L430.327273,25.3213244 L430.327273,45.3428368 Z" id="Shape" fill="#4990E2" fill-rule="nonzero" opacity="0.2"></path>
            <path d="M512.042424,47.1094408 L470.30303,47.1094408 L470.30303,23.5547204 L512.042424,23.5547204 L512.042424,47.1094408 Z M472.066667,45.3428368 L510.278788,45.3428368 L510.278788,25.3213244 L472.066667,25.3213244 L472.066667,45.3428368 Z" id="Shape" fill="#4990E2" fill-rule="nonzero" opacity="0.2"></path>
            <path d="M512.042424,23.5547204 L470.30303,23.5547204 L470.30303,0 L512.042424,0 L512.042424,23.5547204 Z M472.066667,21.7881164 L510.278788,21.7881164 L510.278788,1.76660403 L472.066667,1.76660403 L472.066667,21.7881164 Z" id="Shape" fill="#4990E2" fill-rule="nonzero" opacity="0.2"></path>
        </g>
    </g>
</svg>