<?xml version="1.0" encoding="UTF-8"?>
<svg width="127px" height="115px" viewBox="0 0 127 115" version="1.1" xmlns="http://www.w3.org/2000/svg" xmlns:xlink="http://www.w3.org/1999/xlink">
    <!-- Generator: Sketch 43.1 (39012) - http://www.bohemiancoding.com/sketch -->
    <title>newspaper</title>
    <desc>Created with Sketch.</desc>
    <defs></defs>
    <g id="Page-1" stroke="none" stroke-width="1" fill="none" fill-rule="evenodd">
        <g id="newspaper" fill-rule="nonzero">
            <path d="M99.7857852,30.3079526 L117.928678,30.3079526 C121.269869,30.3079526 123.976309,33.0119397 123.976309,36.3506573 L123.976309,99.7989332 C123.976309,106.473147 118.560701,111.884343 111.881047,111.884343 L111.881047,111.884343 C105.201393,111.884343 99.7857852,106.473147 99.7857852,99.7989332 L99.7857852,30.3079526 L99.7857852,30.3079526 Z" id="Shape" fill="#F7F9FA"></path>
            <path d="M117.928678,27.2864763 L102.809725,27.2864763 L102.809725,9.15836207 C102.809725,4.15189655 98.7487012,0.0944288793 93.7384023,0.0944288793 L9.07132227,0.0944288793 C4.06102344,0.0944288793 0,4.1521444 0,9.15836207 L0,99.7986853 C0,108.140647 6.77019141,114.905323 15.1189531,114.905323 L111.880799,114.905323 C120.229561,114.905323 126.999752,108.140647 126.999752,99.7986853 L126.999752,36.3504095 C127,31.3441918 122.938977,27.2864763 117.928678,27.2864763 Z M6.04763086,99.7989332 L6.04763086,9.15836207 C6.04763086,7.49061422 7.40221484,6.13713362 9.07132227,6.13713362 L93.7379062,6.13713362 C95.4070137,6.13713362 96.7615977,7.49061422 96.7615977,9.15836207 L96.7615977,99.7986853 C96.7615977,103.067759 97.8229902,106.249343 99.7852891,108.862619 L15.1189531,108.862619 C10.1086543,108.862866 6.04763086,104.805151 6.04763086,99.7989332 Z M120.952369,99.7989332 C120.952369,104.805399 116.891346,108.862866 111.881047,108.862866 C106.8705,108.862866 102.809725,104.805151 102.809725,99.7989332 L102.809725,33.3294289 L117.928678,33.3294289 C119.597785,33.3294289 120.952369,34.6829095 120.952369,36.3506573 L120.952369,99.7989332 L120.952369,99.7989332 Z" id="Shape" fill="#619FE8"></path>
            <rect id="Rectangle-path" fill="#D1EEFF" x="21.166584" y="21.2437716" width="60.4763086" height="27.1920474"></rect>
            <g id="Group" transform="translate(18.107422, 18.092672)" fill="#619FE8">
                <path d="M63.5354707,33.3646228 L3.05916211,33.3646228 C1.39005469,33.3646228 0.0354707031,32.0111422 0.0354707031,30.3433944 L0.0354707031,3.15109914 C0.0354707031,1.48335129 1.39005469,0.12987069 3.05916211,0.12987069 L63.5354707,0.12987069 C65.2045781,0.12987069 66.5591621,1.48335129 66.5591621,3.15109914 L66.5591621,30.3431466 C66.5591621,32.0111422 65.2045781,33.3646228 63.5354707,33.3646228 Z M6.08310156,27.3219181 L60.5117793,27.3219181 L60.5117793,6.17257543 L6.08310156,6.17257543 L6.08310156,27.3219181 Z" id="Shape"></path>
                <rect id="Rectangle-path" x="0.0354707031" y="42.428556" width="66.5236914" height="6.04270474"></rect>
                <rect id="Rectangle-path" x="0.0354707031" y="57.5354418" width="66.5236914" height="6.04270474"></rect>
                <rect id="Rectangle-path" x="0.0354707031" y="72.6420797" width="33.2618457" height="6.04270474"></rect>
            </g>
        </g>
    </g>
</svg>