<?xml version="1.0" encoding="iso-8859-1"?>
<!-- Generator: Adobe Illustrator 19.0.0, SVG Export Plug-In . SVG Version: 6.00 Build 0)  -->
<svg version="1.1" id="Capa_1" xmlns="http://www.w3.org/2000/svg" xmlns:xlink="http://www.w3.org/1999/xlink" x="0px" y="0px"
	 viewBox="0 0 512.006 512.006" style="enable-background:new 0 0 512.006 512.006;" xml:space="preserve">
<path style="fill:#D1EEFF;" d="M472.962,19.576l18.973,18.973c9.704,9.704,9.704,25.434,0,35.138l0,0L356.018,209.605
	c-4.858,4.858-12.723,4.858-17.569,0l-36.555-36.555c-4.858-4.858-4.858-12.723,0-17.569L437.812,19.576
	C447.516,9.872,463.258,9.872,472.962,19.576z"/>
<g>
	<path style="fill:#1AA8FF;" d="M500.745,29.789l-18.886-18.886c-14.55-14.537-38.133-14.537-52.682,0l-135.433,135.93
		c-9.704,9.704-9.716,25.434-0.025,35.138c0.012,0.012,0.012,0.012,0.025,0.025l9.443,9.443l-46.718,46.097l-166.372,41.5
		C42.98,290.902,7.842,330.277,1.381,378.437l0,0C-7.13,443.134,38.42,502.489,103.13,511c5.032,0.659,10.102,0.994,15.171,1.006
		c5.492,0,10.971-0.373,16.401-1.118c47.377-6.362,86.205-40.729,98.282-86.976l45.227-172.833l0,0l42.121-42.121l9.443,9.443
		c9.704,9.704,25.434,9.716,35.138,0.025c0.012-0.012,0.012-0.012,0.025-0.025l135.806-135.93
		C515.282,67.922,515.282,44.351,500.745,29.789z M13.806,380.797l12.425,1.367c4.883-38.207,32.628-69.543,69.953-79.023
		l85.733-21.371C126.129,315.939,54.56,371.354,36.544,437.456c-9.182-16.973-12.835-36.393-10.437-55.54L13.806,380.797z
		 M227.269,284.379c-29.199,53.676-93.561,155.562-168.608,168.608C71.707,377.94,173.344,313.205,227.269,284.379z M208.88,417.451
		c-13.171,49.688-64.126,79.284-113.801,66.114c-7.592-2.013-14.91-4.982-21.756-8.834
		c69.083-18.389,126.239-94.555,160.035-150.965L208.88,417.451z M483.225,64.704l-135.93,136.676l-36.53-37.275l135.93-135.682
		c4.846-4.821,12.674-4.821,17.519,0l19.01,18.886c4.821,4.846,4.821,12.674,0,17.519V64.704z"/>
	
		<rect x="437.109" y="49.238" transform="matrix(-0.7071 0.7071 -0.7071 -0.7071 811.5353 -212.8222)" style="fill:#1AA8FF;" width="25.471" height="24.85"/>
</g>
<g>
</g>
<g>
</g>
<g>
</g>
<g>
</g>
<g>
</g>
<g>
</g>
<g>
</g>
<g>
</g>
<g>
</g>
<g>
</g>
<g>
</g>
<g>
</g>
<g>
</g>
<g>
</g>
<g>
</g>
</svg>
