<?xml version="1.0" encoding="iso-8859-1"?>
<!-- Generator: Adobe Illustrator 19.0.0, SVG Export Plug-In . SVG Version: 6.00 Build 0)  -->
<svg version="1.1" id="Capa_1" xmlns="http://www.w3.org/2000/svg" xmlns:xlink="http://www.w3.org/1999/xlink" x="0px" y="0px"
	 viewBox="0 0 512 512" style="enable-background:new 0 0 512 512;" xml:space="preserve">
<path style="fill:#D1EEFF;" d="M134.095,109.714l166.888,144.579c9.167,7.948,22.772,7.948,31.939,0L499.81,109.714"/>
<path style="fill:#1AA8FF;" d="M475.429,97.524H0v24.381h124.099c-1.414,3.913-2.158,8.034-2.194,12.19v24.381H36.571v24.381h85.333
	v36.571H73.143v24.381h48.762v134.095c0,20.2,16.372,36.571,36.571,36.571l0,0h316.952c20.2,0,36.571-16.372,36.571-36.571l0,0
	v-243.81C512,113.896,495.628,97.524,475.429,97.524z M468.846,121.905l-143.97,123.49c-4.559,3.901-11.288,3.901-15.848,0
	l-143.97-123.49H468.846z M475.429,390.095H158.476c-6.729,0-12.19-5.461-12.19-12.19V137.996l146.286,125.806
	c13.69,11.703,33.853,11.703,47.543,0l147.505-125.806v239.909C487.619,384.634,482.158,390.095,475.429,390.095z"/>
<g>
</g>
<g>
</g>
<g>
</g>
<g>
</g>
<g>
</g>
<g>
</g>
<g>
</g>
<g>
</g>
<g>
</g>
<g>
</g>
<g>
</g>
<g>
</g>
<g>
</g>
<g>
</g>
<g>
</g>
</svg>
