<?xml version="1.0" encoding="iso-8859-1"?>
<!-- Generator: Adobe Illustrator 19.0.0, SVG Export Plug-In . SVG Version: 6.00 Build 0)  -->
<svg version="1.1" id="Capa_1" xmlns="http://www.w3.org/2000/svg" xmlns:xlink="http://www.w3.org/1999/xlink" x="0px" y="0px"
	 viewBox="0 0 512.003 512.003" style="enable-background:new 0 0 512.003 512.003;" xml:space="preserve">
<path style="fill:#D1EEFF;" d="M214.85,318.864c-17.158,20.154-42.22,31.881-68.682,32.149c-26.45-0.244-51.5-11.922-68.682-32.027
	c-40.101,21.007-65.236,62.508-65.273,107.773v48.711c0,13.456,10.899,24.355,24.355,24.355h219.199
	c13.456,0,24.355-10.899,24.355-24.355v-48.711C280.122,381.457,254.987,339.895,214.85,318.864z"/>
<ellipse style="fill:#FFFFFF;" cx="146.131" cy="244.044" rx="96.204" ry="106.92"/>
<g>
	<rect x="280.086" y="122.267" style="fill:#619fe8;" width="133.955" height="24.355"/>
	<rect x="280.086" y="183.155" style="fill:#619fe8;" width="85.244" height="24.355"/>
	<path style="fill:#619fe8;" d="M487.144,285.862c-6.418-10.631-6.418-23.954,0-34.585c47.956-77.097,24.331-178.477-52.766-226.432
		c-22.395-13.931-47.822-22.273-74.126-24.307c-83.539-6.746-158.724,50.623-174.263,132.981
		c-12.543-5.565-26.097-8.464-39.821-8.524c-59.793,0-108.382,53.46-108.382,119.098c-0.097,25.5,7.55,50.416,21.92,71.483
		c-37.191,24.782-59.573,66.49-59.671,111.183v48.711c0,20.178,16.355,36.533,36.533,36.533h219.199
		c20.178,0,36.533-16.355,36.533-36.533v-48.711c-0.097-44.692-22.48-86.401-59.671-111.183c4.895-7.368,8.987-15.247,12.178-23.503
		c30.225,24.136,67.757,37.276,106.433,37.264h140.531c6.722,0,12.178-5.456,12.178-12.178c0-2.18-0.585-4.335-1.705-6.211
		L487.144,285.862z M146.167,149.35c46.275,0,84.026,42.5,84.026,94.743s-37.751,94.743-84.026,94.743s-84.026-42.5-84.026-94.743
		S99.892,149.35,146.167,149.35z M267.945,426.758v48.711c0,6.722-5.456,12.178-12.178,12.178H36.568
		c-6.722,0-12.178-5.456-12.178-12.178v-48.711c0.122-37.556,19.472-72.445,51.268-92.429c39.139,38.469,101.879,38.469,141.018,0
		C248.472,354.325,267.823,389.202,267.945,426.758z M351.24,304.981c-36.521-0.012-71.702-13.7-98.64-38.36
		c1.303-7.441,1.948-14.979,1.948-22.529c0.463-37.848-16.574-73.797-46.154-97.422c4.14-32.125,19.29-61.814,42.866-84.026
		c25.878-24.404,60.146-37.921,95.717-37.751c3.775,0,7.55,0,11.447,0c77.097,6.235,134.527,73.797,128.292,150.882
		c-1.79,22.066-8.78,43.389-20.398,62.228c-11.13,18.376-11.13,41.416,0,59.793l4.019,6.82L351.24,304.981z"/>
</g>
<g>
</g>
<g>
</g>
<g>
</g>
<g>
</g>
<g>
</g>
<g>
</g>
<g>
</g>
<g>
</g>
<g>
</g>
<g>
</g>
<g>
</g>
<g>
</g>
<g>
</g>
<g>
</g>
<g>
</g>
</svg>
