<?xml version="1.0" encoding="iso-8859-1"?>
<!-- Generator: Adobe Illustrator 19.0.0, SVG Export Plug-In . SVG Version: 6.00 Build 0)  -->
<svg version="1.1" id="Capa_1" xmlns="http://www.w3.org/2000/svg" xmlns:xlink="http://www.w3.org/1999/xlink" x="0px" y="0px"
	 viewBox="0 0 512 512" style="enable-background:new 0 0 512 512;" xml:space="preserve">
<path style="fill:#D1EEFF;" d="M402.286,146.286h73.143c13.47,0,24.381,10.91,24.381,24.381v256
	c0,26.929-21.833,48.762-48.762,48.762l0,0c-26.929,0-48.762-21.833-48.762-48.762V146.286L402.286,146.286z"/>
<path style="fill:#619fe8;" d="M475.429,134.095h-60.952V60.952c0-20.2-16.372-36.571-36.571-36.571H36.571
	C16.372,24.381,0,40.753,0,60.952v365.714c0,33.658,27.294,60.952,60.952,60.952h390.095c33.658,0,60.952-27.294,60.952-60.952v-256
	C512,150.467,495.628,134.095,475.429,134.095z M24.381,426.667V60.952c0-6.729,5.461-12.19,12.19-12.19h341.333
	c6.729,0,12.19,5.461,12.19,12.19v365.714c0,13.19,4.279,26.027,12.19,36.571H60.952C40.753,463.238,24.381,446.866,24.381,426.667z
	 M487.619,426.667c0,20.2-16.372,36.571-36.571,36.571c-20.2,0-36.571-16.372-36.571-36.571v-268.19h60.952
	c6.729,0,12.19,5.461,12.19,12.19V426.667z"/>
<rect x="85.333" y="109.714" style="fill:#D1EEFF;" width="243.81" height="109.714"/>
<g>
	<path style="fill:#619fe8;" d="M329.143,231.619H85.333c-6.729,0-12.19-5.461-12.19-12.19V109.714c0-6.729,5.461-12.19,12.19-12.19
		h243.81c6.729,0,12.19,5.461,12.19,12.19v109.714C341.333,226.158,335.872,231.619,329.143,231.619z M97.524,207.238h219.429
		v-85.333H97.524V207.238z"/>
	<rect x="73.143" y="268.19" style="fill:#619fe8;" width="268.19" height="24.381"/>
	<rect x="73.143" y="329.143" style="fill:#619fe8;" width="268.19" height="24.381"/>
	<rect x="73.143" y="390.095" style="fill:#619fe8;" width="134.095" height="24.381"/>
</g>
<g>
</g>
<g>
</g>
<g>
</g>
<g>
</g>
<g>
</g>
<g>
</g>
<g>
</g>
<g>
</g>
<g>
</g>
<g>
</g>
<g>
</g>
<g>
</g>
<g>
</g>
<g>
</g>
<g>
</g>
</svg>
