<?xml version="1.0" encoding="iso-8859-1"?>
<!-- Generator: Adobe Illustrator 19.0.0, SVG Export Plug-In . SVG Version: 6.00 Build 0)  -->
<svg version="1.1" id="Capa_1" xmlns="http://www.w3.org/2000/svg" xmlns:xlink="http://www.w3.org/1999/xlink" x="0px" y="0px"
	 viewBox="0 0 512 512" style="enable-background:new 0 0 512 512;" xml:space="preserve">
<path style="fill:#D1EEFF;" d="M335.465,240.21c-17.953-17.782-46.887-17.782-64.839,0L256,254.957l-13.894-13.894
	c-17.953-17.782-46.887-17.782-64.839,0l0,0c-17.782,17.953-17.782,46.887,0,64.839L256,381.468l79.465-75.687
	C353.21,287.523,353.21,258.468,335.465,240.21z"/>
<g>
	<path style="fill:#1AA8FF;" d="M256,393.655c-3.193-0.012-6.265-1.28-8.532-3.534l-78.734-75.687
		c-22.718-22.621-22.803-59.367-0.183-82.085s59.367-22.803,82.085-0.183l0,0l5.241,5.241l6.094-6.094
		c22.682-22.572,59.343-22.572,82.024,0l0,0c22.316,23.023,22.316,59.611,0,82.634l-79.709,76.174
		C262.082,392.315,259.12,393.582,256,393.655z M209.686,239.966c-9.092-0.232-17.892,3.242-24.376,9.628
		c-12.931,13.26-12.931,34.394,0,47.655L256,364.648l71.055-67.643c13.248-13.553,13.248-35.199,0-48.751
		c-13.236-12.846-34.297-12.846-47.533,0l-14.625,14.625c-4.753,4.729-12.432,4.729-17.185,0l-13.894-13.894
		c-6.557-6.13-15.284-9.385-24.254-9.019L209.686,239.966L209.686,239.966z"/>
	<path style="fill:#1AA8FF;" d="M414.442,73.236h-48.751c0-20.195-16.368-36.564-36.564-36.564h-25.96
		c-6.679-26.082-33.236-41.817-59.318-35.138c-17.246,4.412-30.713,17.892-35.138,35.138h-25.838
		c-20.195,0-36.564,16.368-36.564,36.564H97.558c-20.195,0-36.564,16.368-36.564,36.564v365.636
		c0,20.195,16.368,36.564,36.564,36.564h316.885c20.195,0,36.564-16.368,36.564-36.564V109.8
		C451.006,89.605,434.637,73.236,414.442,73.236z M170.685,73.236c0-6.728,5.46-12.188,12.188-12.188h36.564
		c6.728,0,12.188-5.46,12.188-12.188c0-13.468,10.908-24.376,24.376-24.376c13.468,0,24.376,10.908,24.376,24.376
		c0,6.728,5.46,12.188,12.188,12.188h36.564c6.728,0,12.188,5.46,12.188,12.188v24.376h-170.63V73.236z M426.63,475.436
		c0,6.728-5.46,12.188-12.188,12.188H97.558c-6.728,0-12.188-5.46-12.188-12.188V109.8c0-6.728,5.46-12.188,12.188-12.188h48.751
		V109.8c0,6.728,5.46,12.188,12.188,12.188h195.006c6.728,0,12.188-5.46,12.188-12.188V97.612h48.751
		c6.728,0,12.188,5.46,12.188,12.188V475.436z"/>
</g>
<g>
</g>
<g>
</g>
<g>
</g>
<g>
</g>
<g>
</g>
<g>
</g>
<g>
</g>
<g>
</g>
<g>
</g>
<g>
</g>
<g>
</g>
<g>
</g>
<g>
</g>
<g>
</g>
<g>
</g>
</svg>
