<?xml version="1.0" encoding="iso-8859-1"?>
<!-- Generator: Adobe Illustrator 19.0.0, SVG Export Plug-In . SVG Version: 6.00 Build 0)  -->
<svg version="1.1" id="Capa_1" xmlns="http://www.w3.org/2000/svg" xmlns:xlink="http://www.w3.org/1999/xlink" x="0px" y="0px"
	 viewBox="0 0 512 512" style="enable-background:new 0 0 512 512;" xml:space="preserve">
<g>
	<path style="fill:#D1EEFF;" d="M207.238,475.429c0,13.47,10.91,24.381,24.381,24.381h243.81c13.47,0,24.381-10.91,24.381-24.381
		v-97.524H207.238V475.429z"/>
	<path style="fill:#D1EEFF;" d="M475.429,268.19h-243.81c-13.47,0-24.381,10.91-24.381,24.381v36.571H499.81v-36.571
		C499.81,279.101,488.899,268.19,475.429,268.19z"/>
	<path style="fill:#D1EEFF;" d="M12.19,134.095h97.524c13.47,0,24.381-10.91,24.381-24.381V12.19"/>
</g>
<g>
	<path style="fill:#1AA8FF;" d="M475.429,256H341.333V36.571c0-20.2-16.372-36.571-36.571-36.571H144.213
		c-9.691,0.012-18.993,3.864-25.844,10.728L10.728,118.37C3.864,125.221,0.012,134.522,0,144.213v245.882
		c0,20.2,16.372,36.571,36.571,36.571h158.476v48.762c0,20.2,16.372,36.571,36.571,36.571h243.81
		c20.2,0,36.571-16.372,36.571-36.571V292.571C512,272.372,495.628,256,475.429,256z M121.905,41.57v68.145
		c0,6.729-5.461,12.19-12.19,12.19H41.691L121.905,41.57z M197.242,280.381c-1.414,3.913-2.158,8.034-2.194,12.19v24.381H85.333
		v24.381h109.714v60.952H36.571c-6.729,0-12.19-5.461-12.19-12.19v-243.81h85.333c20.2,0,36.571-16.372,36.571-36.571V24.381
		h158.476c6.729,0,12.19,5.461,12.19,12.19V256H85.333v24.381H197.242z M487.619,475.429c0,6.729-5.461,12.19-12.19,12.19h-243.81
		c-6.729,0-12.19-5.461-12.19-12.19v-85.333h268.19V475.429z M487.619,365.714h-268.19v-24.381h268.19V365.714z M487.619,316.952
		h-268.19v-24.381c0-6.729,5.461-12.19,12.19-12.19h243.81c6.729,0,12.19,5.461,12.19,12.19V316.952z"/>
	<rect x="85.333" y="195.048" style="fill:#1AA8FF;" width="170.667" height="24.381"/>
</g>
<g>
</g>
<g>
</g>
<g>
</g>
<g>
</g>
<g>
</g>
<g>
</g>
<g>
</g>
<g>
</g>
<g>
</g>
<g>
</g>
<g>
</g>
<g>
</g>
<g>
</g>
<g>
</g>
<g>
</g>
</svg>
