<?xml version="1.0" encoding="iso-8859-1"?>
<!-- Generator: Adobe Illustrator 19.0.0, SVG Export Plug-In . SVG Version: 6.00 Build 0)  -->
<svg version="1.1" id="Capa_1" xmlns="http://www.w3.org/2000/svg" xmlns:xlink="http://www.w3.org/1999/xlink" x="0px" y="0px"
	 viewBox="0 0 512 512" style="enable-background:new 0 0 512 512;" xml:space="preserve">
<ellipse style="fill:#D1EEFF;" cx="254.598" cy="257.097" rx="86.674" ry="84.236"/>
<path style="fill:#1AA8FF;" d="M416.975,256c37.181-33.768,62.05-66.804,68.876-94.11c3.877-12.507,2.365-26.063-4.145-37.425
	c-19.505-31.817-77.775-29.135-144.579-7.68C321.646,49.737,294.217,0,256.183,0s-65.585,49.737-81.067,116.785
	c-67.048-21.455-124.709-24.137-144.579,7.68c-6.644,11.301-8.277,24.869-4.51,37.425c6.827,27.307,31.695,60.952,68.876,94.11
	c-36.815,33.768-61.684,66.804-68.876,94.11c-3.877,12.507-2.365,26.063,4.145,37.425c10.24,16.701,31.086,24.381,58.149,24.381
	c29.452-1.061,58.587-6.534,86.43-16.213C190.598,462.263,217.905,512,256.183,512s65.585-49.737,81.067-116.785
	c27.843,9.679,56.978,15.141,86.43,16.213c27.063,0,47.909-7.192,58.149-24.381c6.51-11.362,8.021-24.917,4.145-37.425
	C479.025,322.804,454.278,289.768,416.975,256z M424.289,124.83c18.651,0,31.573,4.145,36.571,12.19
	c2.865,5.803,3.304,12.52,1.219,18.651c-5.73,22.918-29.257,52.907-64,83.87c-14.75-12.19-30.964-24.381-48.762-36.571
	c-1.536-21.126-4.133-42.167-7.802-63.025c26.722-9.155,54.662-14.251,82.895-15.116H424.289z M292.876,315.246
	c-12.19,7.192-24.381,13.775-36.571,19.87c-12.19-6.095-24.381-12.19-36.571-19.87s-22.674-13.653-33.402-20.724
	c-0.731-12.19-1.219-25.234-1.219-38.522s0-26.088,1.219-38.522c10.728-7.07,21.943-14.019,33.402-20.724
	c11.459-6.705,24.381-13.775,36.571-19.992c12.19,6.095,24.381,12.19,36.571,19.992c12.19,7.802,22.674,13.653,33.402,20.724
	c0.731,12.19,1.219,25.234,1.219,38.522s0,26.088-1.219,38.522C315.55,301.592,304.457,308.541,292.876,315.246z M323.962,324.998
	c-1.341,13.288-3.17,25.844-5.242,37.912c-11.337-4.267-23.04-9.021-35.109-14.507c7.314-3.901,14.507-7.924,21.699-12.19
	C312.503,331.947,317.867,329.143,323.962,324.998z M228.754,348.404c-12.19,5.486-24.381,10.24-35.109,14.507
	c-2.072-12.19-3.901-24.381-5.242-37.912c6.181,3.816,12.434,7.595,18.773,11.337c7.07,4.145,13.897,8.046,21.577,11.947V348.404z
	 M160.122,277.09c-9.667-6.985-18.895-14.019-27.672-21.09c8.692-7.07,17.92-14.104,27.672-21.09c0,7.07,0,14.104,0,21.09
	C160.122,262.985,160.122,270.019,160.122,277.09z M206.568,175.665c-6.424,3.742-12.678,7.522-18.773,11.337
	c1.341-13.288,3.17-25.844,5.242-37.912c11.301,4.303,23.003,9.179,35.109,14.629c-6.912,3.901-13.934,7.887-21.09,11.947H206.568z
	 M283.002,163.474c12.032-5.449,23.735-10.325,35.109-14.629c2.072,12.19,3.901,24.381,5.242,37.912
	c-6.181-3.816-12.434-7.595-18.773-11.337c-6.339-3.742-13.324-7.643-20.968-11.703L283.002,163.474z M351.025,234.667
	c10.082,7.156,19.59,14.263,28.526,21.333c-8.692,7.07-17.92,14.104-27.672,21.09c0-7.07,0-14.104,0-21.09
	c0-6.985-0.085-14.019-0.244-21.09L351.025,234.667z M256.183,24.381c21.09,0,43.764,38.888,57.783,100.45
	c-19.017,7.07-38.522,15.482-57.783,24.381c-19.261-9.387-38.766-17.798-57.783-24.381
	C212.419,63.269,235.093,24.381,256.183,24.381z M50.408,155.916c-2.085-6.132-1.646-12.849,1.219-18.651
	c5.12-8.29,17.92-12.19,36.571-12.19c28.075,1.207,55.808,6.583,82.286,15.97c-3.669,20.858-6.266,41.899-7.802,63.025
	c-17.432,12.19-33.646,24.381-48.762,36.571C79.299,208.945,55.771,178.956,50.408,155.916z M51.627,374.735
	c-2.865-5.803-3.304-12.52-1.219-18.651c5.73-22.918,29.257-52.907,64-83.871c14.75,12.19,30.964,24.381,48.762,36.571
	c1.536,21.126,4.133,42.167,7.802,63.025c-62.659,19.505-108.373,20.602-119.71,2.926L51.627,374.735z M256.183,487.619
	c-21.09,0-43.764-38.888-57.783-100.45c19.017-7.07,38.522-15.482,57.783-24.381c19.261,9.387,38.766,17.676,57.783,24.381
	C299.947,448.731,277.272,487.619,256.183,487.619z M460.983,374.735c-10.85,17.676-57.051,16.579-118.857-3.535
	c3.669-20.858,6.266-41.899,7.802-63.025c17.432-12.19,33.646-24.381,48.762-36.571c34.621,30.964,58.149,60.952,64,83.87
	C464.798,361.85,464.177,368.823,460.983,374.735z"/>
<g>
</g>
<g>
</g>
<g>
</g>
<g>
</g>
<g>
</g>
<g>
</g>
<g>
</g>
<g>
</g>
<g>
</g>
<g>
</g>
<g>
</g>
<g>
</g>
<g>
</g>
<g>
</g>
<g>
</g>
</svg>
