<?xml version="1.0" encoding="iso-8859-1"?>
<!-- Generator: Adobe Illustrator 19.0.0, SVG Export Plug-In . SVG Version: 6.00 Build 0)  -->
<svg version="1.1" id="Capa_1" xmlns="http://www.w3.org/2000/svg" xmlns:xlink="http://www.w3.org/1999/xlink" x="0px" y="0px"
	 viewBox="0 0 512.048 512.048" style="enable-background:new 0 0 512.048 512.048;" xml:space="preserve">
<circle style="fill:#D1EEFF;" cx="366.1" cy="203.45" r="133.6"/>
<g>
	<path style="fill:#1AA8FF;" d="M511.9,203.45c3.6-80.7-58.9-149-139.5-152.7c-80.7-3.6-149,58.9-152.7,139.5
		c-0.4,9.3,0.1,18.6,1.4,27.8h-75.6c-10.8,0-21.1,4.8-28,13.2l-50.9,60.9c-0.9,1.1-1.9,2-3,2.7l-45.7,27.5
		C6.8,329.15,0,341.05,0,353.85v35c0,20.2,16.4,36.6,36.6,36.6h1.7c7.1,26,33.8,41.3,59.8,34.3c16.7-4.5,29.7-17.6,34.3-34.3h125.3
		c7.1,26,33.8,41.3,59.8,34.3c16.7-4.5,29.7-17.6,34.3-34.3h1.7c20.2,0,36.6-16.4,36.6-36.6v-41.7
		C460.2,335.35,511.6,274.65,511.9,203.45z M85.3,437.65c-13.5,0-24.4-10.9-24.4-24.4s10.9-24.4,24.4-24.4s24.4,10.9,24.4,24.4
		C109.7,426.75,98.8,437.65,85.3,437.65z M304.7,437.65c-13.5,0-24.4-10.9-24.4-24.4s10.9-24.4,24.4-24.4s24.4,10.9,24.4,24.4
		C329,426.75,318.1,437.65,304.7,437.65z M353.4,401.05h-1.7c-7.1-26-33.8-41.3-59.8-34.3c-16.7,4.5-29.7,17.6-34.3,34.3H132.4
		c-7.1-26-33.8-41.3-59.8-34.3c-16.7,4.5-29.7,17.6-34.3,34.3h-1.7c-6.7,0-12.2-5.5-12.2-12.2v-35c0-4.3,2.3-8.3,6-10.5l45.6-27.7
		c3.5-2,6.7-4.5,9.4-7.6l50.9-60.9c2.3-2.8,5.8-4.4,9.4-4.4H226c17.7,62.6,74.6,105.9,139.7,106.4v39.6
		C365.6,395.55,360.2,401.05,353.4,401.05z M365.6,325.05c-67.3,0-121.9-54.6-121.9-121.9s54.6-125.9,121.9-125.9
		s121.9,58.6,121.9,125.9S432.9,325.05,365.6,325.05z"/>
	<path style="fill:#1AA8FF;" d="M324.3,168.65c1.9-4.9,4.8-9.5,8.4-13.3s8-6.8,12.9-8.8c5.4-2.2,11.1-3.2,16.9-3.2
		c6.9-0.2,13.8,0.9,20.2,3.3c4.9,1.9,9.3,4.7,13,8.3c3.1,3,5.5,6.7,7.1,10.7c1.3,3.4,2,7.1,2.1,10.7c0.2,4.6-0.5,9.2-2.1,13.5
		c-1.3,3.3-3,6.3-5.2,9c-2,2.4-4.4,4.5-6.9,6.3l-7.2,5.2c-2.3,1.8-4.3,3.8-6.1,6.1c-1.8,2.5-3,5.4-3.3,8.5v6.5H351v-7.7
		c0.2-4.2,1.1-8.3,2.8-12.2c1.4-3,3.2-5.9,5.4-8.4c1.9-2.2,4.1-4.3,6.5-6.1c2.3-1.7,4.4-3.4,6.3-5.1c1.8-1.6,3.4-3.5,4.6-5.6
		c1.2-2.4,1.8-5,1.6-7.7c0.5-4.4-0.9-8.9-3.9-12.2c-2.9-2.6-6.7-4-10.6-3.8c-2.8-0.1-5.5,0.6-7.9,1.8c-2.2,1.1-4,2.8-5.5,4.8
		c-1.5,2.1-2.5,4.5-3.2,6.9c-0.7,2.8-1,5.7-1,8.7h-25C321.2,179.45,322.3,173.95,324.3,168.65z M375.4,241.75v26.3h-26.8v-26.2
		L375.4,241.75z"/>
</g>
<g>
</g>
<g>
</g>
<g>
</g>
<g>
</g>
<g>
</g>
<g>
</g>
<g>
</g>
<g>
</g>
<g>
</g>
<g>
</g>
<g>
</g>
<g>
</g>
<g>
</g>
<g>
</g>
<g>
</g>
</svg>
