<?xml version="1.0" encoding="iso-8859-1"?>
<!-- Generator: Adobe Illustrator 19.0.0, SVG Export Plug-In . SVG Version: 6.00 Build 0)  -->
<svg version="1.1" id="Capa_1" xmlns="http://www.w3.org/2000/svg" xmlns:xlink="http://www.w3.org/1999/xlink" x="0px" y="0px"
	 viewBox="0 0 512.003 512.003" style="enable-background:new 0 0 512.003 512.003;" xml:space="preserve">
<polygon style="fill:#D1EEFF;" points="313.907,360.934 304.765,115.905 365.717,115.905 365.717,371.905 "/>
<g>

		<rect x="432.777" y="121.892" transform="matrix(-0.8001 0.5999 -0.5999 -0.8001 914.3307 -36.5413)" style="fill:#619fe8;" width="60.954" height="24.381"/>

		<rect x="451.055" y="310.95" transform="matrix(-0.6 0.8 -0.8 -0.6 1014.3342 175.6857)" style="fill:#619fe8;" width="24.381" height="60.952"/>
	<rect x="451.05" y="225.619" style="fill:#619fe8;" width="60.952" height="24.381"/>
	<path style="fill:#619fe8;" d="M385.587,94.328c-2.779-2.414-6.497-3.45-10.118-2.804L9.755,164.667
		c-5.766,1.17-9.874,6.302-9.752,12.19v170.667c0,40.399,32.744,73.143,73.143,73.143s73.143-32.744,73.143-73.143v-9.509
		l229.181,46.08h2.438c6.729,0,12.19-5.461,12.19-12.19v-268.19C390.074,100.07,388.416,96.62,385.587,94.328z M24.384,186.854
		l268.19-53.638v209.189l-268.19-53.638V186.854z M121.907,347.524c0,26.929-21.833,48.762-48.762,48.762
		s-48.762-21.833-48.762-48.762v-33.89l97.524,19.505V347.524z M365.717,357.033l-48.762-9.509V128.095l48.762-9.752V357.033z"/>
</g>
<g>
</g>
<g>
</g>
<g>
</g>
<g>
</g>
<g>
</g>
<g>
</g>
<g>
</g>
<g>
</g>
<g>
</g>
<g>
</g>
<g>
</g>
<g>
</g>
<g>
</g>
<g>
</g>
<g>
</g>
</svg>
